<svg width="4" height="18" viewBox="0 0 4 18" fill="none" xmlns="http://www.w3.org/2000/svg">
<path d="M3.28516 12.1953H0.636719L0.0390625 0.195312H3.88281L3.28516 12.1953ZM0.601562 16.6953C0.226562 16.3359 0.0390625 15.918 0.0390625 15.4414C0.0390625 14.957 0.226562 14.5352 0.601562 14.1758C0.976562 13.8164 1.42969 13.6367 1.96094 13.6367C2.49219 13.6367 2.94531 13.8164 3.32031 14.1758C3.69531 14.5352 3.88281 14.957 3.88281 15.4414C3.88281 15.918 3.69531 16.3359 3.32031 16.6953C2.94531 17.0547 2.49219 17.2344 1.96094 17.2344C1.42969 17.2344 0.976562 17.0547 0.601562 16.6953Z" fill="white"/>
</svg>
