<svg width="38" height="38" viewBox="0 0 38 38" fill="none" xmlns="http://www.w3.org/2000/svg">
<path d="M26.9302 33.2422L11.0969 33.2572C7.61357 33.2604 4.76119 30.4136 4.75723 26.9302L4.74219 11.0969C4.73902 7.61357 7.58586 4.76119 11.0692 4.75723L26.9025 4.74219C30.3859 4.73902 33.2382 7.58586 33.2422 11.0692L33.2572 26.9025C33.2612 30.3866 30.4136 33.239 26.9302 33.2422Z" fill="url(#paint0_radial_58:317)"/>
<path d="M26.9302 33.2422L11.0969 33.2572C7.61357 33.2604 4.76119 30.4136 4.75723 26.9302L4.74219 11.0969C4.73902 7.61357 7.58586 4.76119 11.0692 4.75723L26.9025 4.74219C30.3859 4.73902 33.2382 7.58586 33.2422 11.0692L33.2572 26.9025C33.2612 30.3866 30.4136 33.239 26.9302 33.2422Z" fill="url(#paint1_radial_58:317)"/>
<path d="M18.9999 24.5418C15.9449 24.5418 13.4583 22.056 13.4583 19.0002C13.4583 15.9443 15.9449 13.4585 18.9999 13.4585C22.055 13.4585 24.5416 15.9443 24.5416 19.0002C24.5416 22.056 22.055 24.5418 18.9999 24.5418ZM18.9999 15.0418C16.8173 15.0418 15.0416 16.8175 15.0416 19.0002C15.0416 21.1828 16.8173 22.9585 18.9999 22.9585C21.1825 22.9585 22.9583 21.1828 22.9583 19.0002C22.9583 16.8175 21.1825 15.0418 18.9999 15.0418Z" fill="white"/>
<path d="M24.9375 14.25C25.5933 14.25 26.125 13.7183 26.125 13.0625C26.125 12.4067 25.5933 11.875 24.9375 11.875C24.2817 11.875 23.75 12.4067 23.75 13.0625C23.75 13.7183 24.2817 14.25 24.9375 14.25Z" fill="white"/>
<path d="M23.7499 29.2918H14.2499C11.1949 29.2918 8.70825 26.806 8.70825 23.7502V14.2502C8.70825 11.1943 11.1949 8.7085 14.2499 8.7085H23.7499C26.805 8.7085 29.2916 11.1943 29.2916 14.2502V23.7502C29.2916 26.806 26.805 29.2918 23.7499 29.2918ZM14.2499 10.2918C12.0673 10.2918 10.2916 12.0675 10.2916 14.2502V23.7502C10.2916 25.9328 12.0673 27.7085 14.2499 27.7085H23.7499C25.9325 27.7085 27.7083 25.9328 27.7083 23.7502V14.2502C27.7083 12.0675 25.9325 10.2918 23.7499 10.2918H14.2499Z" fill="white"/>
<defs>
<radialGradient id="paint0_radial_58:317" cx="0" cy="0" r="1" gradientUnits="userSpaceOnUse" gradientTransform="translate(15.3426 33.2778) scale(35.545)">
<stop stop-color="#FFDD55"/>
<stop offset="0.328" stop-color="#FF543F"/>
<stop offset="0.348" stop-color="#FC5245"/>
<stop offset="0.504" stop-color="#E64771"/>
<stop offset="0.643" stop-color="#D53E91"/>
<stop offset="0.761" stop-color="#CC39A4"/>
<stop offset="0.841" stop-color="#C837AB"/>
</radialGradient>
<radialGradient id="paint1_radial_58:317" cx="0" cy="0" r="1" gradientUnits="userSpaceOnUse" gradientTransform="translate(9.33069 4.38618) scale(23.602 15.726)">
<stop stop-color="#4168C9"/>
<stop offset="0.999" stop-color="#4168C9" stop-opacity="0"/>
</radialGradient>
</defs>
</svg>
