<svg width="46" height="46" viewBox="0 0 46 46" fill="none" xmlns="http://www.w3.org/2000/svg">
<path d="M41.3999 32.4875C41.0166 34.5 39.3874 36.0333 37.3749 36.3208C34.2124 36.8 28.9416 37.375 22.9999 37.375C17.1541 37.375 11.8833 36.8 8.62492 36.3208C6.61242 36.0333 4.98325 34.5 4.59992 32.4875C4.21659 30.2833 3.83325 27.025 3.83325 23C3.83325 18.975 4.21659 15.7167 4.59992 13.5125C4.98325 11.5 6.61242 9.96667 8.62492 9.67917C11.7874 9.2 17.0583 8.625 22.9999 8.625C28.9416 8.625 34.1166 9.2 37.3749 9.67917C39.3874 9.96667 41.0166 11.5 41.3999 13.5125C41.7833 15.7167 42.2624 18.975 42.2624 23C42.1666 27.025 41.7833 30.2833 41.3999 32.4875Z" fill="#FF3D00"/>
<path d="M19.1667 29.7082V16.2915L30.6667 22.9998L19.1667 29.7082Z" fill="white"/>
</svg>
