<svg width="37" height="54" viewBox="0 0 37 54" fill="none" xmlns="http://www.w3.org/2000/svg">
<circle cx="18.3334" cy="9" r="8" stroke="#D24044" stroke-width="2"/>
<mask id="path-2-inside-1_782_308" fill="white">
<path d="M0.333374 36C0.333374 31.2261 2.2298 26.6477 5.60545 23.2721C8.98111 19.8964 13.5595 18 18.3334 18C23.1073 18 27.6856 19.8964 31.0613 23.2721C34.4369 26.6477 36.3334 31.2261 36.3334 36L18.3334 36H0.333374Z"/>
</mask>
<path d="M0.333374 36C0.333374 31.2261 2.2298 26.6477 5.60545 23.2721C8.98111 19.8964 13.5595 18 18.3334 18C23.1073 18 27.6856 19.8964 31.0613 23.2721C34.4369 26.6477 36.3334 31.2261 36.3334 36L18.3334 36H0.333374Z" stroke="#D24044" stroke-width="4" mask="url(#path-2-inside-1_782_308)"/>
</svg>
