<svg width="46" height="18" viewBox="0 0 46 18" fill="none" xmlns="http://www.w3.org/2000/svg">
<path d="M11.7842 16H1.06348V13.873L6.12305 8.48047C6.81771 7.72135 7.32975 7.05892 7.65918 6.49316C7.99577 5.92741 8.16406 5.3903 8.16406 4.88184C8.16406 4.18717 7.98861 3.6429 7.6377 3.24902C7.28678 2.84798 6.78548 2.64746 6.13379 2.64746C5.43197 2.64746 4.87695 2.89095 4.46875 3.37793C4.06771 3.85775 3.86719 4.49154 3.86719 5.2793H0.751953C0.751953 4.32682 0.977539 3.45671 1.42871 2.66895C1.88704 1.88118 2.53158 1.2653 3.3623 0.821289C4.19303 0.370117 5.13477 0.144531 6.1875 0.144531C7.79883 0.144531 9.0485 0.53125 9.93652 1.30469C10.8317 2.07812 11.2793 3.17025 11.2793 4.58105C11.2793 5.35449 11.0788 6.14225 10.6777 6.94434C10.2767 7.74642 9.58919 8.68099 8.61523 9.74805L5.05957 13.4971H11.7842V16ZM22.8809 10.1133H24.6533V12.6162H22.8809V16H19.7764V12.6162H13.3633L13.2236 10.6611L19.7441 0.359375H22.8809V10.1133ZM16.3174 10.1133H19.7764V4.5918L19.5723 4.94629L16.3174 10.1133ZM27.4355 17.3428H25.126L30.8838 0.359375H33.1934L27.4355 17.3428ZM45.1924 2.09961L39.1445 16H35.8682L41.9268 2.87305H34.1494V0.359375H45.1924V2.09961Z" fill="#D34043"/>
</svg>
