<svg width="42" height="42" viewBox="0 0 42 42" fill="none" xmlns="http://www.w3.org/2000/svg">
<path d="M21 0C9.39167 0 0 9.39167 0 21C0 32.6083 9.39167 42 21 42C32.6083 42 42 32.6083 42 21C42 9.45 32.6083 0 21 0ZM21 40.25C10.3833 40.25 1.75 31.6167 1.75 21C1.75 10.3833 10.3833 1.75 21 1.75C31.6167 1.75 40.25 10.3833 40.25 21C40.25 31.6167 31.6167 40.25 21 40.25Z" fill="url(#paint0_linear_782_296)"/>
<path d="M23.0417 3.84989C22.75 3.79156 22.5167 3.90822 22.3417 4.08322C22.1667 4.25822 22.05 4.54988 22.1083 4.84155L23.6833 16.0999C23.7417 16.3332 23.8583 16.5666 24.0917 16.7416C24.2083 16.8582 24.3833 16.8582 24.5583 16.8582C24.6167 16.8582 24.7333 16.8582 24.7917 16.7999L35.5833 13.7082C35.8167 13.6499 36.05 13.4166 36.1667 13.1832C36.2833 12.9499 36.225 12.6582 36.1083 12.4249C33.3083 7.64155 28.4667 4.43322 23.0417 3.84989ZM25.2 14.8166L23.9167 5.71655C27.9417 6.47488 31.5583 8.86656 33.8917 12.3082L25.2 14.8166Z" fill="url(#paint1_linear_782_296)"/>
<path d="M26.6 22.1667C26.5417 22.4001 26.6 22.6917 26.775 22.8667L33.6 31.1501C33.775 31.3251 34.0083 31.4417 34.3 31.4417C34.5917 31.4417 34.825 31.3251 35 31.0917C37.1583 28.1167 38.2667 24.6167 38.2667 21.0001C38.2667 19.3667 38.0333 17.7334 37.5667 16.1584C37.5083 15.8667 37.275 15.6917 37.0417 15.5751C36.8083 15.4584 36.5167 15.5167 36.2833 15.6334L27.0083 21.5834C26.8333 21.7001 26.6583 21.9334 26.6 22.1667ZM36.225 17.7917C36.4583 18.8417 36.575 19.8917 36.575 21.0001C36.575 23.9167 35.7583 26.7167 34.3 29.1084L28.8167 22.4584L36.225 17.7917Z" fill="url(#paint2_linear_782_296)"/>
<path d="M15.3417 22.1667C15.2833 21.9333 15.1667 21.7 14.9333 21.5833L5.71667 15.75C5.48333 15.575 5.19166 15.575 4.95832 15.6917C4.72499 15.8083 4.49166 15.9833 4.43333 16.275C3.96666 17.85 3.73334 19.4833 3.73334 21.0583C3.73334 24.675 4.84166 28.175 6.99999 31.15C7.17499 31.3833 7.40833 31.5 7.7 31.5C7.93333 31.5 8.225 31.3833 8.4 31.2083L15.225 22.925C15.2833 22.6917 15.3417 22.4 15.3417 22.1667ZM7.7 29.1083C6.18333 26.6583 5.425 23.9167 5.425 21C5.425 19.95 5.54167 18.9 5.775 17.85L13.1833 22.5167L7.7 29.1083Z" fill="url(#paint3_linear_782_296)"/>
<path d="M6.47503 13.7085L17.2667 16.8001C17.325 16.8001 17.4417 16.8584 17.5 16.8584C17.675 16.8584 17.85 16.8001 17.9667 16.7418C18.2 16.6251 18.3167 16.3918 18.375 16.1001L19.95 4.78346C20.0084 4.49179 19.8917 4.25845 19.7167 4.02512C19.5417 3.85012 19.25 3.73345 19.0167 3.79179C13.5917 4.43345 8.75004 7.64178 6.00837 12.4251C5.89171 12.6584 5.83337 12.9501 5.95004 13.1835C6.00837 13.4751 6.2417 13.6501 6.47503 13.7085ZM18.025 5.71678L16.7417 14.8168L8.05004 12.3085C10.3834 8.92512 14 6.53345 18.025 5.71678Z" fill="url(#paint4_linear_782_296)"/>
<path d="M32.2 32.7835L21.525 25.3752C21.2334 25.1419 20.825 25.1419 20.5334 25.3752L9.85837 32.7835C9.62503 32.9585 9.50836 33.1919 9.50836 33.4835C9.50836 33.7752 9.62503 34.0085 9.80003 34.1835C12.95 36.8669 16.9167 38.3835 21.0584 38.3835C25.2 38.3835 29.1667 36.9252 32.3167 34.2419C32.55 34.0669 32.6084 33.7752 32.6084 33.5419C32.55 33.1919 32.375 32.9002 32.2 32.7835ZM21 36.5752C17.675 36.5752 14.4084 35.5252 11.7834 33.5419L21 27.1252L30.2167 33.5419C27.5334 35.4669 24.325 36.5752 21 36.5752Z" fill="url(#paint5_linear_782_296)"/>
<path d="M21.1167 22.2834C22.1798 22.2834 23.0417 21.4215 23.0417 20.3583C23.0417 19.2952 22.1798 18.4333 21.1167 18.4333C20.0535 18.4333 19.1917 19.2952 19.1917 20.3583C19.1917 21.4215 20.0535 22.2834 21.1167 22.2834Z" fill="url(#paint6_linear_782_296)"/>
<path d="M21.0584 16.8584C21.5094 16.8584 21.875 16.4928 21.875 16.0418C21.875 15.5907 21.5094 15.2251 21.0584 15.2251C20.6073 15.2251 20.2417 15.5907 20.2417 16.0418C20.2417 16.4928 20.6073 16.8584 21.0584 16.8584Z" fill="url(#paint7_linear_782_296)"/>
<path d="M25.2583 19.95C25.7094 19.95 26.075 19.5843 26.075 19.1333C26.075 18.6823 25.7094 18.3167 25.2583 18.3167C24.8073 18.3167 24.4417 18.6823 24.4417 19.1333C24.4417 19.5843 24.8073 19.95 25.2583 19.95Z" fill="url(#paint8_linear_782_296)"/>
<path d="M24.0917 24.325C24.5427 24.325 24.9084 23.9593 24.9084 23.5083C24.9084 23.0573 24.5427 22.6917 24.0917 22.6917C23.6407 22.6917 23.275 23.0573 23.275 23.5083C23.275 23.9593 23.6407 24.325 24.0917 24.325Z" fill="url(#paint9_linear_782_296)"/>
<path d="M17.9667 24.2085C18.4177 24.2085 18.7834 23.8429 18.7834 23.3919C18.7834 22.9408 18.4177 22.5752 17.9667 22.5752C17.5157 22.5752 17.15 22.9408 17.15 23.3919C17.15 23.8429 17.5157 24.2085 17.9667 24.2085Z" fill="url(#paint10_linear_782_296)"/>
<path d="M16.8583 20.1834C17.3094 20.1834 17.675 19.8178 17.675 19.3667C17.675 18.9157 17.3094 18.55 16.8583 18.55C16.4073 18.55 16.0417 18.9157 16.0417 19.3667C16.0417 19.8178 16.4073 20.1834 16.8583 20.1834Z" fill="url(#paint11_linear_782_296)"/>
<defs>
<linearGradient id="paint0_linear_782_296" x1="-75.863" y1="21.0057" x2="237.812" y2="21.0057" gradientUnits="userSpaceOnUse">
<stop stop-color="#EF4136"/>
<stop offset="1" stop-color="#2B3990"/>
</linearGradient>
<linearGradient id="paint1_linear_782_296" x1="-75.863" y1="10.327" x2="237.812" y2="10.327" gradientUnits="userSpaceOnUse">
<stop stop-color="#EF4136"/>
<stop offset="1" stop-color="#2B3990"/>
</linearGradient>
<linearGradient id="paint2_linear_782_296" x1="-75.8627" y1="23.516" x2="237.811" y2="23.516" gradientUnits="userSpaceOnUse">
<stop stop-color="#EF4136"/>
<stop offset="1" stop-color="#2B3990"/>
</linearGradient>
<linearGradient id="paint3_linear_782_296" x1="-75.8632" y1="23.513" x2="237.813" y2="23.513" gradientUnits="userSpaceOnUse">
<stop stop-color="#EF4136"/>
<stop offset="1" stop-color="#2B3990"/>
</linearGradient>
<linearGradient id="paint4_linear_782_296" x1="-75.863" y1="10.3365" x2="237.812" y2="10.3365" gradientUnits="userSpaceOnUse">
<stop stop-color="#EF4136"/>
<stop offset="1" stop-color="#2B3990"/>
</linearGradient>
<linearGradient id="paint5_linear_782_296" x1="-75.8631" y1="31.7476" x2="237.813" y2="31.7476" gradientUnits="userSpaceOnUse">
<stop stop-color="#EF4136"/>
<stop offset="1" stop-color="#2B3990"/>
</linearGradient>
<linearGradient id="paint6_linear_782_296" x1="-75.8624" y1="20.3733" x2="237.811" y2="20.3733" gradientUnits="userSpaceOnUse">
<stop stop-color="#EF4136"/>
<stop offset="1" stop-color="#2B3990"/>
</linearGradient>
<linearGradient id="paint7_linear_782_296" x1="-75.8623" y1="16.0316" x2="237.811" y2="16.0316" gradientUnits="userSpaceOnUse">
<stop stop-color="#EF4136"/>
<stop offset="1" stop-color="#2B3990"/>
</linearGradient>
<linearGradient id="paint8_linear_782_296" x1="-75.8628" y1="19.1217" x2="237.812" y2="19.1217" gradientUnits="userSpaceOnUse">
<stop stop-color="#EF4136"/>
<stop offset="1" stop-color="#2B3990"/>
</linearGradient>
<linearGradient id="paint9_linear_782_296" x1="-75.8615" y1="23.5246" x2="237.809" y2="23.5246" gradientUnits="userSpaceOnUse">
<stop stop-color="#EF4136"/>
<stop offset="1" stop-color="#2B3990"/>
</linearGradient>
<linearGradient id="paint10_linear_782_296" x1="-75.863" y1="23.365" x2="237.812" y2="23.365" gradientUnits="userSpaceOnUse">
<stop stop-color="#EF4136"/>
<stop offset="1" stop-color="#2B3990"/>
</linearGradient>
<linearGradient id="paint11_linear_782_296" x1="-75.864" y1="19.3832" x2="237.814" y2="19.3832" gradientUnits="userSpaceOnUse">
<stop stop-color="#EF4136"/>
<stop offset="1" stop-color="#2B3990"/>
</linearGradient>
</defs>
</svg>
