<svg width="46" height="39" viewBox="0 0 46 39" fill="none" xmlns="http://www.w3.org/2000/svg">
<path d="M9.85452 15.5176H22.6656H31.3266H34.9354C35.2361 15.5176 35.4767 15.3973 35.6571 15.1567C35.8375 14.9161 35.8977 14.6755 35.8375 14.3748L33.1911 4.33045C33.0107 3.6087 32.2889 3.06738 31.5672 3.06738H13.343C12.5611 3.06738 11.8995 3.6087 11.719 4.33045L9.07264 14.3748C9.01249 14.6755 9.07263 14.9161 9.25307 15.1567C9.31321 15.3973 9.61394 15.5176 9.85452 15.5176ZM26.0939 13.7132H23.6881C23.9888 12.5704 24.9511 11.6682 26.0939 11.3074V13.7132ZM27.8983 13.7132V11.3074C29.0411 11.6081 30.0034 12.5103 30.3041 13.7132H27.8983ZM13.343 4.87176H31.4469L33.7926 13.7132H32.1687C31.7476 11.2472 29.5824 9.3827 26.9961 9.3827C24.4098 9.3827 22.3047 11.2472 21.8236 13.7132H10.9973L13.343 4.87176Z" fill="#D24044"/>
<path d="M5.88496 26.404C7.44875 26.404 8.65165 25.141 8.65165 23.6373C8.65165 22.0735 7.3886 20.8706 5.88496 20.8706C4.32116 20.8706 3.11824 22.1337 3.11824 23.6373C3.0581 25.2011 4.32116 26.404 5.88496 26.404ZM5.88496 22.675C6.42627 22.675 6.84727 23.096 6.84727 23.6373C6.84727 24.1786 6.42627 24.5996 5.88496 24.5996C5.34364 24.5996 4.92262 24.1786 4.92262 23.6373C4.86247 23.096 5.34364 22.675 5.88496 22.675Z" fill="#D24044"/>
<path d="M39.4463 26.404C41.0101 26.404 42.213 25.141 42.213 23.6373C42.213 22.0735 40.9499 20.8706 39.4463 20.8706C37.8825 20.8706 36.6796 22.1337 36.6796 23.6373C36.6194 25.2011 37.8825 26.404 39.4463 26.404ZM39.4463 22.675C39.9876 22.675 40.4086 23.096 40.4086 23.6373C40.4086 24.1786 39.9876 24.5996 39.4463 24.5996C38.905 24.5996 38.484 24.1786 38.484 23.6373C38.4238 23.096 38.905 22.675 39.4463 22.675Z" fill="#D24044"/>
<path d="M0.952993 29.8323C1.25372 31.3961 2.51679 32.4788 4.02044 32.6592L4.32116 36.1477C4.44146 37.2904 5.46393 38.1325 6.66685 38.1325H9.01253C9.73428 38.1325 10.3959 37.8317 10.8169 37.3506C11.2379 36.9296 11.4184 36.3281 11.3582 35.7868L11.0575 32.7193H14.1249V33.4411C14.1249 33.9223 14.546 34.3433 15.0271 34.3433H30.1237C30.6049 34.3433 31.0259 33.9223 31.0259 33.4411V32.7193H33.7325L33.4318 35.7868C33.3716 36.3882 33.5521 36.9296 33.9731 37.3506C34.3941 37.8317 35.0557 38.1325 35.7775 38.1325H38.1231C39.326 38.1325 40.3485 37.2904 40.4688 36.1477L40.7696 32.7193C42.4536 32.7193 43.8971 31.5164 44.1979 29.8925L44.9196 25.983C45.4609 23.0359 44.4986 20.0887 42.4536 18.4046C41.6116 17.743 40.6493 17.2619 39.6268 17.0814L36.0782 3.60875C35.5369 1.4435 33.552 0 31.3868 0H13.1626C10.9372 0 9.01254 1.50365 8.47122 3.60875L4.92262 17.2017C4.08058 17.4423 3.29867 17.8633 2.63707 18.4046C0.59211 20.0887 -0.430355 23.0359 0.171104 25.983L0.952993 29.8323ZM9.61399 35.9672C9.61399 36.0274 9.61399 36.0875 9.55384 36.1477C9.43355 36.268 9.25312 36.3281 9.07268 36.3281H6.727C6.42627 36.3281 6.18569 36.1477 6.18569 35.9672L5.88496 32.6592H9.31326L9.61399 35.9672ZM29.2817 32.4788H15.9895V31.757V29.4113H29.2817V31.757V32.4788ZM38.7848 35.9672C38.7848 36.1477 38.5442 36.3281 38.2434 36.3281H35.8977C35.7173 36.3281 35.5368 36.268 35.4166 36.1477C35.3564 36.0875 35.3564 36.0274 35.3564 35.9672L35.6572 32.7193H39.0855L38.7848 35.9672ZM10.3357 3.96963C10.6966 2.64642 11.8995 1.68409 13.2829 1.68409H31.5071C32.8904 1.68409 34.0934 2.64642 34.4542 3.96963L37.8224 16.901H37.2209H7.32846H6.96758L10.3357 3.96963ZM35.8376 18.7054C34.9955 19.9083 33.5521 20.6902 32.0484 20.6902H12.6814C11.1176 20.6902 9.73429 19.9083 8.89225 18.7054H35.8376ZM3.83999 19.788C4.44145 19.3068 5.1632 18.946 5.94509 18.8257C6.24582 18.7655 6.48642 18.7655 6.78715 18.7655C7.80963 21.0511 10.0952 22.5547 12.6814 22.5547H32.0484C34.6347 22.5547 36.8601 21.0511 37.9427 18.7655H38.5442C38.7246 18.7655 38.8449 18.7655 39.0253 18.7655C39.9275 18.8858 40.7696 19.1865 41.4913 19.788C43.0551 21.051 43.7768 23.3366 43.3558 25.6221L42.6341 29.5316C42.4536 30.3135 41.792 30.915 40.95 30.915H40.1681H34.9354H31.2064V28.5693C31.2064 28.0881 30.7853 27.6671 30.3042 27.6671H15.2076C14.7264 27.6671 14.3054 28.0881 14.3054 28.5693V30.915H10.2155H4.98277H4.50159C3.65955 30.915 2.99796 30.3135 2.81752 29.5316L2.09576 25.6221C1.55445 23.3366 2.27619 21.051 3.83999 19.788Z" fill="#D24044"/>
</svg>
