<svg width="31" height="44" viewBox="0 0 31 44" fill="none" xmlns="http://www.w3.org/2000/svg">
<path d="M7.49475 43.2631H23.7053C23.7053 43.2631 23.7053 43.2631 23.7632 43.2631C28.4526 43.2053 31 32.2632 31 21.9C31 11.5948 28.4526 0.652655 23.7632 0.536865C23.7632 0.536865 23.7632 0.536865 23.7053 0.536865H7.49475C2.74738 0.536865 0.200012 11.5369 0.200012 21.9C0.257907 32.2632 2.80528 43.2631 7.49475 43.2631ZM29.2632 21.9C29.2632 33.1316 26.3105 41.5263 23.7053 41.5263C21.1 41.5263 18.1474 33.1316 18.1474 21.9C18.1474 10.6684 21.1 2.27371 23.7053 2.27371C26.3684 2.27371 29.2632 10.6684 29.2632 21.9ZM7.49475 2.27371H20.6947C20.6947 2.27371 20.6947 2.3316 20.6369 2.3316C20.4632 2.50529 20.3474 2.73685 20.1737 2.96843C20.1737 3.02633 20.1158 3.02633 20.1158 3.08423C20 3.25791 19.8842 3.4895 19.7684 3.72107C19.7684 3.77897 19.7105 3.83686 19.7105 3.89475C19.5947 4.12633 19.4211 4.4158 19.3053 4.70527C19.3053 4.76317 19.2474 4.82107 19.2474 4.87897C19.1316 5.11055 19.0158 5.40001 18.9579 5.63159C18.9579 5.68949 18.9 5.74739 18.9 5.80529C18.7842 6.09476 18.6684 6.44211 18.5526 6.73159C18.5526 6.78948 18.4947 6.90529 18.4947 6.96318C18.379 7.25265 18.3211 7.54213 18.2053 7.8316C18.2053 7.8895 18.1474 7.94738 18.1474 8.00528C18.0316 8.35265 17.9737 8.70001 17.8579 9.04738C17.8579 9.10527 17.8 9.22107 17.8 9.27897C17.7421 9.62634 17.6263 9.9158 17.5684 10.2632C17.5684 10.3211 17.5684 10.379 17.5105 10.4369C17.4526 10.8421 17.3368 11.1895 17.2789 11.5948C17.2789 11.7105 17.2211 11.7684 17.2211 11.8842C17.1632 12.2316 17.1053 12.579 17.0474 12.9263C17.0474 12.9842 17.0474 13.0421 17.0474 13.1C16.9895 13.5053 16.9316 13.9105 16.8737 14.3158C16.8737 14.4316 16.8737 14.5474 16.8158 14.6053C16.7579 15.0105 16.7579 15.3579 16.7 15.7632C16.7 15.8211 16.7 15.879 16.7 15.879C16.6421 16.2842 16.6421 16.7474 16.5842 17.1526C16.5842 17.2684 16.5842 17.3842 16.5842 17.4421C16.5842 17.8474 16.5263 18.2526 16.5263 18.6579V18.7158C16.5263 19.179 16.4684 19.5842 16.4684 20.0474C16.4684 20.1632 16.4684 20.2789 16.4684 20.3368C16.4684 20.8 16.4684 21.2053 16.4684 21.6684C16.4684 22.1316 16.4684 22.5368 16.4684 23C16.4684 23.1158 16.4684 23.2316 16.4684 23.2895C16.4684 23.7526 16.4684 24.1579 16.5263 24.6211V24.6789C16.5263 25.0842 16.5842 25.4895 16.5842 25.8947C16.5842 26.0105 16.5842 26.1263 16.5842 26.1842C16.6421 26.5895 16.6421 27.0526 16.7 27.4579C16.7 27.5158 16.7 27.5737 16.7 27.5737C16.7579 27.9789 16.7579 28.3263 16.8158 28.7316C16.8158 28.8474 16.8158 28.9632 16.8737 29.021C16.9316 29.4263 16.9895 29.8316 17.0474 30.2368C17.0474 30.2947 17.0474 30.3526 17.0474 30.4105C17.1053 30.7579 17.1632 31.1053 17.2211 31.4526C17.2211 31.5684 17.2789 31.6263 17.2789 31.7421C17.3368 32.1474 17.3948 32.4947 17.5105 32.9C17.5105 32.9579 17.5105 33.0158 17.5684 33.0737C17.6263 33.421 17.6842 33.7105 17.8 34.0579C17.8 34.1158 17.8579 34.2316 17.8579 34.2895C17.9737 34.6368 18.0316 34.9842 18.1474 35.3316C18.1474 35.3895 18.2053 35.4474 18.2053 35.5053C18.2632 35.7947 18.379 36.0842 18.4947 36.3737C18.4947 36.4316 18.5526 36.5474 18.5526 36.6053C18.6684 36.9526 18.7842 37.2421 18.9 37.5316C18.9 37.5895 18.9579 37.6474 18.9579 37.7053C19.0737 37.9947 19.1895 38.2263 19.2474 38.4579C19.2474 38.5158 19.3053 38.5737 19.3053 38.6316C19.4211 38.921 19.5368 39.1526 19.7105 39.4421C19.7105 39.5 19.7684 39.5579 19.7684 39.6158C19.8842 39.8474 20 40.0211 20.1158 40.2526C20.1158 40.3105 20.1737 40.3105 20.1737 40.3684C20.2895 40.6 20.4632 40.7737 20.6369 41.0053C20.6369 41.0053 20.6369 41.0632 20.6947 41.0632H7.49475C4.88949 41.0632 1.93685 32.6684 1.93685 21.4369C1.99475 10.6684 4.88949 2.27371 7.49475 2.27371Z" fill="#D24044"/>
<path d="M7.03164 39.7316C7.03164 40.1948 7.37901 40.6001 7.90006 40.6001C8.36322 40.6001 8.76848 40.2527 8.76848 39.7316L8.82638 37.6474C8.82638 37.358 8.65269 37.0106 8.42111 36.8948L7.26322 36.2001L7.72637 34.9264C7.84215 34.579 7.72637 34.1737 7.43689 33.9422L6.39479 33.0737L6.97374 31.858C7.14743 31.5106 7.03164 31.1053 6.80006 30.8738L5.81585 29.9474L6.51059 28.7316C6.68428 28.3843 6.62637 27.979 6.39479 27.6896L5.46848 26.6475L6.22112 25.4896C6.4527 25.2001 6.3948 24.7369 6.16322 24.4474L5.2948 23.3474L6.10532 22.2475C6.3369 21.958 6.3369 21.5527 6.10532 21.2053L5.2948 20.1053L6.16322 19.0632C6.3948 18.7738 6.3948 18.3685 6.22112 18.0211L5.46848 16.8632L6.39479 15.8211C6.62637 15.5317 6.68428 15.1264 6.51059 14.779L5.81585 13.5632L6.80006 12.6369C7.08954 12.4053 7.14743 12.0001 6.97374 11.6527L6.39479 10.4369L7.43689 9.56852C7.72637 9.33694 7.84215 8.93167 7.72637 8.5843L7.26322 7.31061L8.42111 6.67378C8.71058 6.5001 8.88427 6.21061 8.82638 5.92114L8.76848 3.83693C8.76848 3.37377 8.36322 2.96851 7.90006 2.96851C7.4369 2.96851 7.03164 3.37377 7.03164 3.83693L7.08954 5.40009L5.75795 6.15271C5.41058 6.38429 5.23691 6.78957 5.3527 7.19483L5.81585 8.5264L4.71585 9.39482C4.42638 9.6264 4.31059 10.0896 4.48428 10.4369L5.06322 11.7106L4.02111 12.6948C3.73163 12.9843 3.67375 13.3896 3.84743 13.7369L4.54216 14.9527L3.55796 15.9948C3.26848 16.2843 3.26848 16.7475 3.50006 17.0369L4.25268 18.1948L3.38426 19.2948C3.15268 19.5843 3.15268 20.0474 3.38426 20.3369L4.1948 21.4948L3.38426 22.6527C3.15268 22.9422 3.15268 23.4053 3.38426 23.6948L4.25268 24.7948L3.50006 25.9527C3.26848 26.3001 3.32638 26.7053 3.61586 26.9948L4.60006 28.0369L3.90533 29.2527C3.73165 29.6001 3.78953 30.0632 4.07901 30.2948L5.1211 31.279L4.54216 32.5527C4.36847 32.9001 4.48428 33.3632 4.77375 33.5948L5.87375 34.4632L5.41058 35.7948C5.29479 36.2001 5.41058 36.6053 5.81585 36.8369L7.14742 37.5895L7.03164 39.7316Z" fill="#D24044"/>
<path d="M8.76848 10.7263L9.34742 12L8.30531 12.9842C8.01583 13.2737 7.95795 13.679 8.13163 14.0263L8.82637 15.2421L7.84216 16.2842C7.55268 16.5737 7.55268 17.0369 7.78426 17.3263L8.5369 18.4842L7.66848 19.5842C7.4369 19.8737 7.4369 20.3368 7.66848 20.6263L8.479 21.7842L7.66848 22.9421C7.4369 23.2316 7.4369 23.6947 7.66848 23.9842L8.5369 25.0842L7.78426 26.2421C7.55268 26.5895 7.61058 26.9947 7.90006 27.2842L8.88426 28.3263L8.18953 29.5421C8.01585 29.8895 8.07373 30.3526 8.36321 30.5842L9.40532 31.5684L8.82637 32.8421C8.65269 33.1895 8.76848 33.6526 9.05795 33.8842L10.1579 34.7526L9.6948 36.0842C9.57901 36.4895 9.69478 36.8947 10.1 37.1263L11.4316 37.8789L11.3737 39.4421C11.3737 39.9052 11.7211 40.3105 12.2422 40.3105C12.7053 40.3105 13.1106 39.9631 13.1106 39.4421L13.1685 37.3579C13.1685 37.0684 12.9948 36.721 12.7632 36.6053L11.6053 35.9105L12.0685 34.6368C12.1843 34.2895 12.0685 33.8842 11.779 33.6526L10.7369 32.7842L11.3158 31.5684C11.4895 31.2211 11.3737 30.8158 11.1422 30.5842L10.1579 29.6579L10.8527 28.4421C11.0264 28.0947 10.9685 27.6895 10.7369 27.4L9.81057 26.3579L10.5632 25.2C10.7948 24.9105 10.7369 24.4474 10.5053 24.1579L9.6369 23.0579L10.4474 21.9579C10.679 21.6684 10.679 21.2632 10.4474 20.9158L9.6369 19.8158L10.5053 18.7737C10.7369 18.4842 10.7369 18.0789 10.5632 17.7316L9.81057 16.5737L10.7369 15.5316C10.9685 15.2421 11.0264 14.8369 10.8527 14.4895L10.1579 13.2737L11.1422 12.3474C11.4316 12.1158 11.4895 11.7105 11.3158 11.3632L10.7369 10.1474L11.779 9.27896C12.0685 9.04739 12.1843 8.64212 12.0685 8.29475L11.6053 7.02106L12.7632 6.38423C13.0527 6.21055 13.2264 5.92106 13.1685 5.63159L13.1106 3.54738C13.1106 3.08422 12.7053 2.67896 12.2422 2.67896C11.779 2.67896 11.3737 3.08422 11.3737 3.54738L11.4316 5.11054L10.1 5.86316C9.75268 6.09474 9.57901 6.50002 9.6948 6.90528L10.1579 8.23685L9.05795 9.10527C8.71058 9.97369 8.65269 10.379 8.76848 10.7263Z" fill="#D24044"/>
<path d="M13.1106 10.7263L13.6895 12L12.6474 12.9842C12.3579 13.2737 12.3 13.679 12.4737 14.0263L13.1685 15.2421L12.1843 16.2842C11.8948 16.5737 11.8948 17.0369 12.1264 17.3263L12.879 18.4842L12.0106 19.5842C11.779 19.8737 11.779 20.3368 12.0106 20.6263L12.8211 21.7842L12.0106 22.9421C11.779 23.2316 11.779 23.6947 12.0106 23.9842L12.879 25.0842L12.1264 26.2421C11.8948 26.5895 11.9527 26.9947 12.2422 27.2842L13.2264 28.3263L12.5316 29.5421C12.3579 29.8895 12.4158 30.3526 12.7053 30.5842L13.7474 31.5684L13.1685 32.8421C12.9948 33.1895 13.1106 33.6526 13.4001 33.8842L14.5 34.7526L14.0369 36.0842C13.9211 36.4895 14.0369 36.8947 14.4421 37.1263L15.7737 37.8789L15.7158 39.4421C15.7158 39.9052 16.0632 40.3105 16.5843 40.3105C17.0474 40.3105 17.4527 39.9631 17.4527 39.4421L17.5106 37.3579C17.5106 37.0684 17.3369 36.721 17.1053 36.6053L15.9474 35.9105L16.4106 34.6368C16.5264 34.2895 16.4106 33.8842 16.1211 33.6526L15.079 32.7842L15.6579 31.5684C15.8316 31.2211 15.7158 30.8158 15.4843 30.5842L14.5 29.6579L15.1948 28.4421C15.3685 28.0947 15.3106 27.6895 15.079 27.4L14.1527 26.3579L14.9053 25.2C15.1369 24.9105 15.079 24.4474 14.8474 24.1579L13.979 23.0579L14.7895 21.9579C15.0211 21.6684 15.0211 21.2632 14.7895 20.9158L13.979 19.8158L14.8474 18.7737C15.079 18.4842 15.079 18.0789 14.9053 17.7316L14.1527 16.5737L15.079 15.5316C15.3106 15.2421 15.3685 14.8369 15.1948 14.4895L14.5 13.2737L15.4843 12.3474C15.7737 12.1158 15.8316 11.7105 15.6579 11.3632L15.079 10.1474L16.1211 9.27896C16.4106 9.04739 16.5264 8.64212 16.4106 8.29475L15.9474 7.02106L17.1053 6.38423C17.3948 6.21055 17.5685 5.92106 17.5106 5.63159L17.4527 3.54738C17.4527 3.08422 17.0474 2.67896 16.5843 2.67896C16.1211 2.67896 15.7158 3.08422 15.7158 3.54738L15.7737 5.11054L14.4421 5.86316C14.0948 6.09474 13.9211 6.50002 14.0369 6.90528L14.5 8.23685L13.4001 9.10527C13.0527 9.97369 12.9369 10.379 13.1106 10.7263Z" fill="#D24044"/>
<path d="M23.0105 4.29993C22.0842 5.51572 20.5211 9.22098 19.8263 15.5894C19.8263 15.7052 19.8263 15.7631 19.8263 15.8789C19.7684 16.2841 19.7684 16.6894 19.7105 17.0947C19.7105 17.3262 19.6526 17.6157 19.6526 17.9052C19.6526 18.0789 19.6526 18.3104 19.5947 18.4841C19.5947 18.9473 19.5368 19.4104 19.5368 19.8736C19.5368 19.9894 19.5368 20.1631 19.5368 20.2789C19.5368 20.7999 19.5368 21.3789 19.5368 21.9578C19.5368 22.5368 19.5368 23.0578 19.5368 23.6368C19.5368 23.7525 19.5368 23.9262 19.5368 24.042C19.5368 24.5052 19.5947 24.9683 19.5947 25.4315C19.5947 25.6052 19.5947 25.8368 19.6526 26.0104C19.6526 26.2999 19.7105 26.5315 19.7105 26.821C19.7684 27.2262 19.7684 27.6315 19.8263 28.0368C19.8263 28.1525 19.8263 28.2104 19.8263 28.3262C20.5211 34.6946 22.0842 38.3999 23.0105 39.6157C23.1842 39.8473 23.4158 39.9631 23.7053 39.9631C23.9947 39.9631 24.2263 39.8473 24.4 39.6157C25.6158 38.0525 27.9316 32.321 27.9316 22.0157C27.9316 11.7105 25.6158 5.97886 24.4 4.41571C24.1105 3.83676 23.3579 3.83677 23.0105 4.29993ZM22.6632 21.8999C22.6632 25.5473 22.3737 28.4999 21.9684 30.8157C21.5632 28.3262 21.2737 25.3736 21.2737 21.8999C21.2737 18.4262 21.5632 15.4736 21.9684 12.9841C22.3737 15.2999 22.6632 18.2525 22.6632 21.8999ZM26.1947 21.8999C26.1947 29.3683 24.8632 34.6946 23.7053 37.242C23.4158 36.6052 23.1263 35.7946 22.8368 34.8104C23.5316 32.2631 24.3421 27.9789 24.3421 21.8999C24.3421 15.821 23.5316 11.5368 22.8368 8.9894C23.1263 8.00519 23.4158 7.19466 23.7053 6.55782C24.8632 9.10519 26.1947 14.4315 26.1947 21.8999Z" fill="#D24044"/>
</svg>
