<svg width="30" height="46" viewBox="0 0 30 46" fill="none" xmlns="http://www.w3.org/2000/svg">
<path d="M16.6179 10.3357C16.6766 10.5705 16.794 10.8054 17.0288 10.9815L19.5535 12.4493V34.2901C17.7334 35.4056 16.6179 37.3431 16.6179 39.4567C16.6179 42.8033 19.3186 45.504 22.6652 45.504C26.0118 45.504 28.7125 42.8033 28.7125 39.4567C28.7125 37.3431 27.597 35.3469 25.7769 34.2901V12.4493L28.3015 10.9815C28.5364 10.8641 28.7125 10.6292 28.7125 10.3357L29.3583 6.46068C29.3583 6.40197 29.3583 6.34326 29.3583 6.34326C29.3583 3.5838 27.597 1.05919 25.0137 0.0610906C24.7201 -0.0563331 24.4265 0.00237922 24.1917 0.178515C23.9568 0.35465 23.8394 0.589498 23.8394 0.883057V6.51939H21.4909V0.883057C21.4909 0.589498 21.3735 0.295938 21.1387 0.178515C20.9038 0.00237922 20.6103 0.00237878 20.3167 0.0610906C17.7334 1.05919 15.972 3.5838 15.972 6.34326C15.972 6.40197 15.972 6.46068 15.972 6.46068L16.6179 10.3357ZM19.7296 2.35085V7.34136C19.7296 7.81105 20.1406 8.22204 20.6103 8.22204H24.7201C25.1898 8.22204 25.6008 7.81105 25.6008 7.34136V2.29214C26.8337 3.17282 27.597 4.64061 27.6557 6.22583L27.1273 9.63112L24.544 11.1576C24.2504 11.3338 24.0743 11.6273 24.0743 11.9209V34.8185C24.0743 35.1708 24.2504 35.4643 24.544 35.6405C26.0705 36.345 27.0099 37.8715 27.0099 39.5154C27.0099 41.8639 25.0724 43.8014 22.7239 43.8014C20.3754 43.8014 18.4379 41.8639 18.4379 39.5154C18.4379 37.8715 19.3773 36.345 20.9038 35.6405C21.1974 35.4643 21.3735 35.1708 21.3735 34.8185V11.9209C21.3735 11.6273 21.1974 11.3338 20.9038 11.1576L18.3205 9.63112L17.7921 6.22583C17.7334 4.69933 18.4966 3.23153 19.7296 2.35085Z" fill="url(#paint0_linear_782_297)"/>
<path d="M19.7883 39.4567C19.7883 41.0419 21.08 42.3336 22.6652 42.3336C24.2504 42.3336 25.5421 41.0419 25.5421 39.4567C25.5421 37.8715 24.2504 36.5798 22.6652 36.5798C21.08 36.5798 19.7883 37.8715 19.7883 39.4567ZM23.7807 39.4567C23.7807 40.0438 23.2523 40.5722 22.6652 40.5722C22.0781 40.5722 21.5497 40.0438 21.5497 39.4567C21.5497 38.8696 22.0781 38.3412 22.6652 38.3412C23.311 38.3412 23.7807 38.8696 23.7807 39.4567Z" fill="url(#paint1_linear_782_297)"/>
<path d="M22.6652 28.3014C23.1349 28.3014 23.5459 27.8904 23.5459 27.4207V24.1329C23.5459 23.6632 23.1349 23.2522 22.6652 23.2522C22.1955 23.2522 21.7845 23.6632 21.7845 24.1329V27.4207C21.7845 27.8904 22.1955 28.3014 22.6652 28.3014Z" fill="url(#paint2_linear_782_297)"/>
<path d="M22.6652 22.2541C23.1349 22.2541 23.5459 21.8431 23.5459 21.3734V18.0855C23.5459 17.6158 23.1349 17.2048 22.6652 17.2048C22.1955 17.2048 21.7845 17.6158 21.7845 18.0855V21.3734C21.7845 21.8431 22.1955 22.2541 22.6652 22.2541Z" fill="url(#paint3_linear_782_297)"/>
<path d="M2.1161 26.951C2.17481 26.951 2.23352 26.951 2.23352 27.0097L0.589584 40.1024C0.413448 41.3354 0.824433 42.5683 1.6464 43.5664C2.58579 44.6819 3.93616 45.3278 5.46267 45.3865C5.52138 45.3865 5.6388 45.3865 5.69751 45.3865C7.22402 45.3865 8.69182 44.7994 9.68992 43.6838C10.5706 42.7444 10.9816 41.5115 10.8054 40.2198L9.1028 26.951C9.1028 26.951 9.16151 26.8923 9.22022 26.8923C10.4532 26.8923 11.3926 26.0116 11.3926 24.8961V24.0154C11.3926 22.8999 10.3945 22.0192 9.22022 22.0192H7.81114V8.10447L8.86796 4.34691C9.04409 3.7598 8.92666 3.05525 8.6331 2.52685L7.69372 1.00034C7.51758 0.765491 7.22402 0.589355 6.93046 0.589355H4.46457C4.17101 0.589355 3.87745 0.765491 3.70131 1.00034L2.76192 2.52685C2.40965 3.05525 2.35094 3.70108 2.52708 4.34691L3.58389 8.10447V22.0192H2.1748C0.941853 22.0192 0.00246553 22.8999 0.00246553 24.0154V24.8961C-0.0562463 26.0116 0.941858 26.951 2.1161 26.951ZM5.28653 7.7522L4.22972 3.87722C4.171 3.75979 4.22972 3.58366 4.28843 3.46624L4.93427 2.35071H6.46077L7.1066 3.46624C7.16531 3.58366 7.22402 3.75979 7.16531 3.87722L6.1085 7.7522C6.1085 7.81091 6.04979 7.92833 6.04979 7.98705V22.0192H5.34525V7.98705C5.28653 7.86962 5.28653 7.81091 5.28653 7.7522ZM1.70511 24.0154C1.70511 23.898 1.88125 23.7805 2.1161 23.7805H4.40585H6.87175H9.16152C9.39636 23.7805 9.5725 23.9567 9.5725 24.0154V24.8961C9.5725 25.0135 9.39636 25.1309 9.16152 25.1309C8.5744 25.1309 8.04599 25.3657 7.69372 25.7767C7.34145 26.129 7.22403 26.5987 7.28274 27.1271L8.98538 40.4547C9.1028 41.1592 8.80925 41.9225 8.28084 42.4509C7.5763 43.2141 6.57819 43.6251 5.40395 43.5664C4.40585 43.5077 3.46647 43.0967 2.87935 42.3922C2.35094 41.8051 2.11609 41.0418 2.23352 40.3373L3.87745 27.1858C3.93616 26.7161 3.76003 26.2464 3.46647 25.8354C3.1142 25.4245 2.58579 25.1896 1.99867 25.1896C1.76383 25.1896 1.58768 25.0135 1.58768 24.9548V24.0154H1.70511Z" fill="url(#paint4_linear_782_297)"/>
<path d="M5.69746 40.6896C6.16715 40.6896 6.57814 40.2786 6.57814 39.8089V31.4131C6.57814 30.9435 6.16715 30.5325 5.69746 30.5325C5.22776 30.5325 4.81678 30.9435 4.81678 31.4131V39.8089C4.81678 40.3373 5.16905 40.6896 5.69746 40.6896Z" fill="url(#paint5_linear_782_297)"/>
<defs>
<linearGradient id="paint0_linear_782_297" x1="-22.2793" y1="22.7523" x2="293.431" y2="22.7523" gradientUnits="userSpaceOnUse">
<stop stop-color="#EF4136"/>
<stop offset="1" stop-color="#2B3990"/>
</linearGradient>
<linearGradient id="paint1_linear_782_297" x1="-22.2792" y1="39.4726" x2="293.43" y2="39.4726" gradientUnits="userSpaceOnUse">
<stop stop-color="#EF4136"/>
<stop offset="1" stop-color="#2B3990"/>
</linearGradient>
<linearGradient id="paint2_linear_782_297" x1="-22.2793" y1="25.7772" x2="293.431" y2="25.7772" gradientUnits="userSpaceOnUse">
<stop stop-color="#EF4136"/>
<stop offset="1" stop-color="#2B3990"/>
</linearGradient>
<linearGradient id="paint3_linear_782_297" x1="-22.2793" y1="19.7272" x2="293.431" y2="19.7272" gradientUnits="userSpaceOnUse">
<stop stop-color="#EF4136"/>
<stop offset="1" stop-color="#2B3990"/>
</linearGradient>
<linearGradient id="paint4_linear_782_297" x1="-22.2791" y1="22.9428" x2="293.43" y2="22.9428" gradientUnits="userSpaceOnUse">
<stop stop-color="#EF4136"/>
<stop offset="1" stop-color="#2B3990"/>
</linearGradient>
<linearGradient id="paint5_linear_782_297" x1="-22.2791" y1="35.6439" x2="293.431" y2="35.6439" gradientUnits="userSpaceOnUse">
<stop stop-color="#EF4136"/>
<stop offset="1" stop-color="#2B3990"/>
</linearGradient>
</defs>
</svg>
