<svg width="24" height="24" viewBox="0 0 24 24" fill="none" xmlns="http://www.w3.org/2000/svg">
<path d="M18 12L18.7071 11.2929L19.4142 12L18.7071 12.7071L18 12ZM12.7071 5.29289L18.7071 11.2929L17.2929 12.7071L11.2929 6.70711L12.7071 5.29289ZM18.7071 12.7071L12.7071 18.7071L11.2929 17.2929L17.2929 11.2929L18.7071 12.7071Z" fill="white"/>
<path d="M12 12L12.7071 11.2929L13.4142 12L12.7071 12.7071L12 12ZM6.70711 5.29289L12.7071 11.2929L11.2929 12.7071L5.29289 6.70711L6.70711 5.29289ZM12.7071 12.7071L6.70711 18.7071L5.29289 17.2929L11.2929 11.2929L12.7071 12.7071Z" fill="white"/>
</svg>
