<svg width="88" height="30" viewBox="0 0 88 30" fill="none" xmlns="http://www.w3.org/2000/svg">
<path d="M87.8749 24.0167C87.8749 24.0167 88.8907 17.3422 85.1708 13.4672C81.9248 10.0846 79.0246 9.18545 73.116 8.92225C67.6248 8.67668 65.0804 8.90462 61.4485 8.92225C59.119 8.93358 32.9365 10.7798 23.2012 8.92225C23.2012 8.92225 29.2279 11.7079 43.3683 11.5921C55.1075 11.4963 65.0087 11.6399 68.0334 11.6915C68.5865 11.7008 69.1389 11.6852 69.6903 11.6449C71.5195 11.5127 76.5606 11.3339 80.6878 12.9874C85.8396 15.0414 87.4098 20.5334 87.8749 24.0167Z" fill="white"/>
<path d="M82.3128 24.0023C82.9439 20.1077 80.3037 16.4379 76.4158 15.8057C72.528 15.1735 68.8646 17.8183 68.2335 21.713C67.6024 25.6076 70.2426 29.2774 74.1305 29.9096C78.0183 30.5418 81.6817 27.897 82.3128 24.0023Z" fill="white"/>
<path d="M23.9397 24.0011C24.5708 20.1064 21.9307 16.4367 18.0428 15.8045C14.1549 15.1723 10.4916 17.8171 9.86047 21.7117C9.22937 25.6064 11.8695 29.2762 15.7574 29.9084C19.6453 30.5406 23.3086 27.8958 23.9397 24.0011Z" fill="white"/>
<path d="M73.9651 13.6838C73.9651 13.6838 65.6227 11.3616 62.9538 21.9274H29.2749C29.2749 21.9274 26.9932 15.0011 21.5762 14.4973C21.5762 14.4973 21.6893 14.6107 21.8666 14.821C23.4037 15.7684 24.636 17.1391 25.4163 18.7693C26.1965 20.3996 26.4917 22.2204 26.2666 24.0142H66.1985C66.1985 24.0142 65.3059 14.5956 73.9651 13.6838Z" fill="white"/>
<path d="M37.8024 2.77167C49.1984 3.30311 58.5453 7.41612 58.5453 7.41612C58.5453 7.41612 56.5753 5.44273 50.3173 3.00842C44.0592 0.574121 36.9526 -1.3703 26.6767 1.26046C16.9577 3.75018 18.7994 8.32032 1.72242 7.49671C1.59465 7.48975 1.4674 7.51774 1.3543 7.57769C1.2412 7.63763 1.14651 7.72727 1.08038 7.837C1.01424 7.94673 0.97915 8.07241 0.978866 8.20059C0.978582 8.32877 1.01311 8.45461 1.07876 8.56463C1.80539 9.81516 2.53705 11.9384 1.06116 14.1561C-1.25701 17.6319 0.945506 22.8569 0.945506 22.8569H7.46379C7.46314 20.4204 8.40179 18.0779 10.0838 16.318C11.7659 14.5582 14.0614 13.517 16.4913 13.4118C14.9023 13.1398 12.437 13.2859 8.82276 14.8424H3.03111C3.03111 14.8424 4.88665 12.4044 4.30711 10.4348C4.30711 10.4348 10.9134 8.34551 17.2884 10.5506C23.6633 12.7557 37.8024 14.1498 47.0751 13.2242C47.0751 13.2242 24.8237 12.1789 18.0992 7.41863C18.103 7.41486 24.5144 2.15207 37.8024 2.77167Z" fill="white"/>
</svg>
