<svg width="907" height="299" viewBox="0 0 907 299" fill="none" xmlns="http://www.w3.org/2000/svg">
<path d="M907 280H0V281H907V280Z" fill="#646464"/>
<path d="M719 103H717V297H719V103Z" fill="#646464"/>
<path d="M816 213H611V214H816V213Z" fill="#646464"/>
<path d="M316 213H110V214H316V213Z" fill="#646464"/>
<path d="M718.5 282C705.15 282 692.099 278.041 680.999 270.624C669.899 263.207 661.247 252.665 656.138 240.331C651.029 227.997 649.693 214.425 652.297 201.331C654.902 188.238 661.33 176.21 670.77 166.77C680.21 157.33 692.238 150.902 705.331 148.297C718.425 145.693 731.997 147.029 744.331 152.138C756.665 157.247 767.207 165.899 774.624 176.999C782.041 188.099 786 201.15 786 214.5C786 232.402 778.888 249.571 766.23 262.23C753.571 274.888 736.402 282 718.5 282ZM718.5 149.5C705.644 149.5 693.077 153.312 682.388 160.454C671.699 167.597 663.368 177.748 658.448 189.626C653.528 201.503 652.241 214.572 654.749 227.181C657.257 239.79 663.448 251.372 672.538 260.462C681.629 269.552 693.21 275.743 705.819 278.251C718.428 280.759 731.497 279.472 743.374 274.552C755.252 269.632 765.403 261.301 772.546 250.612C779.688 239.923 783.5 227.356 783.5 214.5C783.507 205.96 781.83 197.502 778.567 189.61C775.303 181.718 770.516 174.547 764.48 168.506C758.443 162.465 751.275 157.672 743.386 154.403C735.497 151.133 727.04 149.45 718.5 149.45V149.5Z" fill="#FDE3A7"/>
<path d="M718.5 262C709.105 262 699.922 259.214 692.11 253.995C684.299 248.775 678.211 241.357 674.616 232.677C671.021 223.998 670.08 214.447 671.913 205.233C673.746 196.019 678.269 187.555 684.912 180.912C691.555 174.269 700.019 169.745 709.233 167.913C718.447 166.08 727.998 167.021 736.677 170.616C745.357 174.211 752.775 180.299 757.995 188.11C763.214 195.922 766 205.105 766 214.5C765.987 227.094 760.978 239.168 752.073 248.073C743.168 256.978 731.094 261.987 718.5 262ZM718.5 167.991C709.301 167.991 700.309 170.719 692.661 175.829C685.013 180.94 679.052 188.203 675.531 196.702C672.011 205.2 671.09 214.552 672.885 223.573C674.679 232.595 679.109 240.882 685.613 247.387C692.118 253.891 700.405 258.321 709.427 260.115C718.448 261.91 727.8 260.989 736.298 257.469C744.797 253.948 752.06 247.987 757.171 240.339C762.281 232.691 765.009 223.699 765.009 214.5C764.996 202.169 760.091 190.347 751.372 181.628C742.653 172.909 730.831 168.004 718.5 167.991ZM714.213 252.832H713.643C706.834 251.981 700.38 249.31 694.961 245.101L694.515 244.754L708.861 230.408L709.183 230.606C710.647 231.447 712.212 232.097 713.842 232.539H714.213V252.832ZM696.026 244.581C701.064 248.373 706.98 250.828 713.222 251.717V233.307C711.753 232.901 710.339 232.318 709.01 231.572L696.026 244.581ZM722.836 252.832V232.563H723.208C724.837 232.122 726.403 231.472 727.866 230.631L728.188 230.432L742.535 244.779L742.089 245.126C736.658 249.332 730.197 252.001 723.381 252.857L722.836 252.832ZM723.827 233.307V251.717C730.067 250.819 735.981 248.365 741.023 244.581L728.015 231.572C726.693 232.297 725.286 232.854 723.827 233.232V233.307ZM688.419 238.584L688.072 238.139C683.867 232.717 681.196 226.264 680.341 219.456V218.886H700.61V219.257C701.03 220.894 701.681 222.462 702.543 223.916L702.741 224.238L688.419 238.584ZM681.333 219.803C682.231 226.043 684.685 231.956 688.469 236.999L701.477 224.015C700.734 222.682 700.143 221.269 699.718 219.803H681.333ZM748.581 238.51L734.234 224.164L734.432 223.841C735.274 222.378 735.923 220.812 736.365 219.183V218.811H756.634V219.381C755.766 226.143 753.124 232.555 748.977 237.965L748.581 238.51ZM735.473 224.015L748.482 236.999C752.27 231.958 754.724 226.044 755.618 219.803H737.208C736.817 221.269 736.252 222.684 735.523 224.015H735.473ZM700.486 210.189H680.218V209.619C681.069 202.81 683.74 196.356 687.948 190.936L688.295 190.49L702.642 204.836L702.444 205.159C701.582 206.612 700.931 208.18 700.511 209.817L700.486 210.189ZM681.333 209.197H699.718C700.143 207.731 700.734 206.318 701.477 204.985L688.469 192.001C684.685 197.044 682.231 202.957 681.333 209.197ZM756.733 210.189H736.464V209.817C736.023 208.188 735.373 206.622 734.532 205.159L734.333 204.836L748.68 190.49L749.027 190.936C753.226 196.361 755.896 202.812 756.758 209.619L756.733 210.189ZM737.208 209.197H755.667C754.774 202.956 752.319 197.042 748.531 192.001L735.523 204.985C736.269 206.314 736.851 207.729 737.257 209.197H737.208ZM728.139 198.741L727.817 198.543C726.358 197.691 724.791 197.041 723.158 196.61H722.787V176.341H723.332C730.15 177.187 736.613 179.858 742.039 184.072L742.485 184.419L728.139 198.741ZM723.827 195.842C725.287 196.263 726.693 196.853 728.015 197.601L741.023 184.593C735.981 180.809 730.067 178.354 723.827 177.456V195.842ZM708.96 198.84L694.614 184.494L695.06 184.147C700.48 179.938 706.933 177.267 713.743 176.416H714.312V196.684H713.941C712.308 197.115 710.741 197.766 709.282 198.617L708.96 198.84ZM696.125 184.593L709.109 197.601C710.442 196.857 711.855 196.267 713.321 195.842V177.456C707.053 178.3 701.102 180.721 696.026 184.494L696.125 184.593Z" fill="#FDE3A7"/>
<path d="M719 254C711.287 254 703.746 251.713 697.333 247.427C690.919 243.142 685.921 237.051 682.969 229.925C680.017 222.798 679.245 214.957 680.749 207.392C682.254 199.826 685.969 192.877 691.423 187.423C696.877 181.969 703.826 178.254 711.392 176.749C718.957 175.245 726.798 176.017 733.925 178.969C741.051 181.921 747.142 186.919 751.427 193.333C755.713 199.746 758 207.287 758 215C757.993 225.341 753.882 235.257 746.57 242.57C739.257 249.882 729.341 253.993 719 254ZM719 177.001C711.484 177.001 704.138 179.229 697.889 183.405C691.64 187.58 686.769 193.515 683.893 200.458C681.017 207.402 680.265 215.042 681.731 222.413C683.197 229.784 686.816 236.555 692.13 241.87C697.445 247.184 704.216 250.803 711.587 252.269C718.958 253.735 726.598 252.983 733.542 250.107C740.485 247.231 746.42 242.36 750.595 236.111C754.771 229.862 756.999 222.516 756.999 215C756.993 204.924 752.987 195.263 745.862 188.138C738.737 181.013 729.076 177.007 719 177.001Z" fill="#646464"/>
<path d="M718 230C715.033 230 712.133 229.091 709.666 227.388C707.2 225.685 705.277 223.264 704.142 220.432C703.006 217.599 702.709 214.483 703.288 211.476C703.867 208.469 705.296 205.708 707.393 203.54C709.491 201.372 712.164 199.896 715.074 199.298C717.983 198.7 720.999 199.007 723.74 200.18C726.481 201.353 728.824 203.34 730.472 205.889C732.12 208.438 733 211.434 733 214.5C733 218.611 731.42 222.553 728.607 225.46C725.794 228.367 721.978 230 718 230ZM718 200.266C715.241 200.266 712.544 201.111 710.25 202.695C707.956 204.279 706.168 206.531 705.112 209.164C704.056 211.798 703.78 214.697 704.318 217.493C704.856 220.289 706.185 222.858 708.136 224.874C710.087 226.89 712.572 228.263 715.279 228.819C717.985 229.375 720.789 229.09 723.338 227.999C725.887 226.908 728.066 225.06 729.599 222.689C731.132 220.319 731.95 217.532 731.95 214.681C731.95 210.858 730.48 207.191 727.864 204.488C725.248 201.785 721.7 200.266 718 200.266Z" fill="#FDE3A7"/>
<path d="M718 277C705.738 277 693.751 273.334 683.555 266.467C673.359 259.599 665.412 249.838 660.72 238.418C656.027 226.997 654.799 214.431 657.191 202.307C659.584 190.183 665.489 179.047 674.159 170.306C682.83 161.565 693.878 155.613 705.904 153.201C717.931 150.789 730.397 152.027 741.726 156.758C753.055 161.488 762.738 169.499 769.551 179.777C776.364 190.055 780 202.139 780 214.5C779.98 231.07 773.442 246.956 761.819 258.672C750.196 270.389 734.437 276.98 718 277ZM718 154.493C706.227 154.493 694.718 158.012 684.929 164.606C675.139 171.2 667.51 180.572 663.004 191.536C658.499 202.501 657.32 214.567 659.617 226.207C661.914 237.847 667.583 248.539 675.908 256.931C684.233 265.323 694.84 271.039 706.387 273.354C717.934 275.669 729.903 274.481 740.78 269.939C751.657 265.397 760.954 257.706 767.495 247.838C774.036 237.97 777.527 226.368 777.527 214.5C777.514 198.589 771.238 183.334 760.077 172.083C748.917 160.833 733.783 154.506 718 154.493Z" fill="#FDE3A7"/>
<path d="M208 282C194.749 282 181.795 278.041 170.777 270.624C159.759 263.207 151.171 252.665 146.1 240.331C141.029 227.997 139.702 214.425 142.287 201.331C144.873 188.238 151.254 176.21 160.624 166.77C169.994 157.33 181.932 150.902 194.929 148.297C207.926 145.693 221.397 147.029 233.64 152.138C245.882 157.247 256.346 165.899 263.708 176.999C271.071 188.099 275 201.15 275 214.5C275 223.364 273.267 232.142 269.9 240.331C266.533 248.521 261.598 255.962 255.376 262.23C249.155 268.498 241.769 273.47 233.64 276.862C225.511 280.254 216.799 282 208 282ZM208 149.5C195.239 149.5 182.765 153.312 172.155 160.454C161.545 167.597 153.276 177.748 148.393 189.626C143.509 201.503 142.232 214.572 144.721 227.181C147.211 239.79 153.355 251.372 162.379 260.462C171.402 269.552 182.898 275.743 195.413 278.251C207.928 280.759 220.901 279.472 232.69 274.552C244.479 269.632 254.556 261.301 261.645 250.612C268.735 239.923 272.519 227.356 272.519 214.5C272.525 205.96 270.861 197.502 267.622 189.61C264.382 181.718 259.631 174.547 253.639 168.506C247.647 162.465 240.533 157.672 232.702 154.403C224.871 151.133 216.477 149.45 208 149.45V149.5Z" fill="#FDE3A7"/>
<path d="M208.475 262C199.082 261.995 189.9 259.205 182.092 253.983C174.284 248.76 168.2 241.34 164.609 232.66C161.017 223.98 160.08 214.43 161.916 205.218C163.751 196.006 168.277 187.544 174.921 180.904C181.565 174.263 190.029 169.742 199.242 167.911C208.456 166.08 218.005 167.022 226.683 170.618C235.361 174.214 242.778 180.302 247.997 188.113C253.215 195.924 256 205.106 256 214.5C255.987 227.098 250.975 239.176 242.064 248.082C233.154 256.988 221.073 261.993 208.475 262ZM208.475 167.991C199.278 167.996 190.288 170.728 182.643 175.841C174.998 180.955 169.041 188.22 165.524 196.719C162.008 205.218 161.09 214.568 162.888 223.589C164.685 232.609 169.117 240.894 175.622 247.395C182.127 253.897 190.415 258.324 199.436 260.117C208.457 261.91 217.807 260.987 226.304 257.466C234.801 253.945 242.063 247.984 247.172 240.336C252.282 232.689 255.009 223.698 255.009 214.5C254.996 202.165 250.088 190.339 241.363 181.619C232.639 172.899 220.81 167.998 208.475 167.991ZM212.787 252.832V232.563H213.158C214.789 232.126 216.355 231.476 217.817 230.631L218.164 230.432L232.386 244.606L231.94 244.953C226.52 249.161 220.067 251.832 213.257 252.683L212.787 252.832ZM213.778 233.307V251.717C220.07 250.843 226.037 248.388 231.123 244.581L218.114 231.572C216.746 232.311 215.289 232.869 213.778 233.232V233.307ZM204.164 252.832H203.619C196.81 251.981 190.356 249.31 184.936 245.101L184.49 244.754L198.812 230.408L199.159 230.606C200.618 231.456 202.185 232.106 203.817 232.539H204.164V252.832ZM185.977 244.581C191.019 248.365 196.933 250.819 203.173 251.717V233.307C201.71 232.905 200.303 232.323 198.985 231.572L185.977 244.581ZM178.394 238.584L178.047 238.138C173.84 232.715 171.162 226.264 170.292 219.456V218.886H190.511V219.257C190.933 220.889 191.575 222.456 192.419 223.916L192.617 224.238L178.394 238.584ZM171.357 219.877C172.251 226.118 174.706 232.033 178.494 237.073L191.477 224.089C190.742 222.755 190.16 221.342 189.743 219.877H171.357ZM238.581 238.584L224.259 224.238L224.432 223.916C225.294 222.462 225.945 220.894 226.365 219.257V218.886H246.758V219.456C245.836 226.211 243.133 232.599 238.928 237.965L238.581 238.584ZM225.498 224.089L238.482 237.073C242.27 232.033 244.724 226.118 245.618 219.877H227.232C226.81 221.317 226.229 222.704 225.498 224.015V224.089ZM190.511 210.189H170.218V209.619C171.101 202.786 173.806 196.316 178.047 190.886L178.394 190.44L192.741 204.836L192.543 205.159C191.699 206.618 191.057 208.185 190.635 209.817L190.511 210.189ZM171.357 209.197H189.743C190.16 207.732 190.742 206.319 191.477 204.985L178.494 192.001C174.706 197.042 172.251 202.956 171.357 209.197ZM246.758 210.189H226.464V209.817C226.044 208.18 225.393 206.612 224.532 205.159L224.358 204.836L238.68 190.49L239.027 190.936C243.234 196.359 245.912 202.81 246.782 209.619L246.758 210.189ZM227.232 209.197H245.618C244.729 202.955 242.274 197.039 238.482 192.001L225.498 204.985C226.234 206.319 226.816 207.732 227.232 209.197ZM218.164 198.741L217.817 198.543C216.362 197.683 214.794 197.032 213.158 196.61H212.787V176.341H213.357C220.166 177.193 226.62 179.863 232.039 184.072L232.485 184.419L218.164 198.741ZM213.778 195.842C215.247 196.258 216.661 196.849 217.99 197.601L230.999 184.593C225.914 180.786 219.946 178.33 213.654 177.456L213.778 195.842ZM198.911 198.84L184.589 184.493L185.035 184.147C190.455 179.938 196.909 177.267 203.718 176.416H204.263V196.684H203.891C202.265 197.111 200.705 197.761 199.258 198.617L198.911 198.84ZM186.076 184.593L199.084 197.601C200.407 196.853 201.812 196.263 203.272 195.842V177.456C197.006 178.309 191.057 180.73 185.977 184.493L186.076 184.593Z" fill="#FDE3A7"/>
<path d="M207.85 254C200.143 253.97 192.617 251.658 186.224 247.354C179.83 243.051 174.855 236.95 171.926 229.821C168.997 222.692 168.246 214.855 169.768 207.3C171.29 199.744 175.016 192.809 180.476 187.37C185.936 181.931 192.885 178.231 200.447 176.738C208.008 175.246 215.842 176.027 222.959 178.983C230.077 181.939 236.159 186.938 240.438 193.348C244.716 199.758 247 207.293 247 215C246.993 220.132 245.975 225.213 244.004 229.951C242.032 234.69 239.146 238.993 235.509 242.615C231.873 246.238 227.559 249.107 222.813 251.061C218.067 253.014 212.982 254.013 207.85 254ZM207.85 177C200.335 177.005 192.991 179.238 186.745 183.417C180.5 187.595 175.633 193.531 172.761 200.475C169.889 207.419 169.14 215.059 170.609 222.428C172.078 229.798 175.699 236.566 181.014 241.878C186.329 247.19 193.1 250.807 200.471 252.271C207.841 253.735 215.48 252.981 222.422 250.104C229.364 247.227 235.298 242.357 239.472 236.109C243.646 229.86 245.874 222.514 245.874 215C245.861 204.921 241.85 195.26 234.721 188.136C227.592 181.012 217.928 177.007 207.85 177Z" fill="#646464"/>
<path d="M208 230C205.033 230 202.133 229.091 199.666 227.388C197.2 225.685 195.277 223.264 194.142 220.432C193.007 217.599 192.709 214.483 193.288 211.476C193.867 208.469 195.296 205.708 197.393 203.54C199.491 201.372 202.164 199.896 205.074 199.298C207.983 198.7 210.999 199.007 213.74 200.18C216.481 201.353 218.824 203.34 220.472 205.889C222.12 208.438 223 211.434 223 214.5C223 218.611 221.42 222.553 218.607 225.46C215.794 228.367 211.978 230 208 230ZM208 200.137C205.241 200.137 202.544 200.982 200.25 202.566C197.956 204.15 196.168 206.401 195.112 209.035C194.056 211.669 193.78 214.568 194.318 217.364C194.856 220.16 196.185 222.729 198.136 224.745C200.087 226.761 202.572 228.133 205.279 228.69C207.985 229.246 210.789 228.96 213.338 227.869C215.887 226.778 218.066 224.931 219.599 222.56C221.132 220.19 221.95 217.403 221.95 214.552C221.917 210.751 220.433 207.118 217.82 204.442C215.208 201.767 211.678 200.266 208 200.266V200.137Z" fill="#FDE3A7"/>
<path d="M207.975 277C195.516 276.995 183.338 273.325 172.981 266.455C162.624 259.584 154.553 249.821 149.788 238.4C145.024 226.98 143.78 214.414 146.214 202.292C148.647 190.169 154.649 179.035 163.461 170.297C172.273 161.559 183.498 155.609 195.719 153.199C207.939 150.79 220.605 152.029 232.115 156.76C243.625 161.491 253.463 169.502 260.384 179.78C267.306 190.057 271 202.14 271 214.5C270.98 231.074 264.333 246.964 252.517 258.681C240.701 270.399 224.682 276.987 207.975 277ZM207.975 154.493C196.013 154.498 184.321 158.022 174.377 164.618C164.433 171.215 156.684 180.588 152.11 191.554C147.536 202.519 146.342 214.584 148.678 226.222C151.015 237.861 156.778 248.55 165.238 256.94C173.698 265.33 184.476 271.042 196.209 273.356C207.941 275.669 220.102 274.479 231.153 269.937C242.204 265.394 251.65 257.703 258.295 247.836C264.94 237.968 268.487 226.367 268.487 214.5C268.474 198.585 262.093 183.326 250.747 172.074C239.401 160.823 224.017 154.5 207.975 154.493Z" fill="#FDE3A7"/>
<path d="M644.266 234H282.125L282.3 213.876C282.3 194.15 274.453 175.232 260.485 161.284C246.517 147.336 227.573 139.5 207.819 139.5C188.066 139.5 169.121 147.336 155.153 161.284C141.186 175.232 133.338 194.15 133.338 213.876V233.975H57.7119C40.7981 233.975 24.3575 230.418 18.7528 204.722C14.1693 183.802 13.7708 173.379 17.6318 168.678C18.5737 167.642 19.7298 166.823 21.0202 166.277C22.3106 165.732 23.7043 165.473 25.1048 165.519C26.4749 160.171 33.8482 134.077 47.6981 127.908C65.9073 119.774 118.393 102.834 265.137 80.645C272.436 79.5505 286.734 71.8393 304.818 62.0882C337.974 44.203 383.409 19.8005 434.076 7.6366C452.958 3.13421 496.226 0 539.246 0C572.6 0 599.03 1.8656 613.976 5.24861C650.17 13.5071 703.95 36.1435 736.034 49.6756C750.557 55.7949 762.04 60.6206 765.204 61.3171C767.047 61.7151 772.104 62.337 779.104 63.2076C829.596 69.4264 876.751 77.0133 879.989 90.3215C884.224 107.734 889.255 151.116 889.504 156.912C890.196 157.159 890.903 157.358 891.622 157.509C894.561 158.206 898.97 159.25 898.97 163.23C898.97 164.723 898.97 166.29 898.97 167.932C899.095 183.305 899.319 206.488 888.383 222.533C883.675 229.473 808.173 232.831 793.103 233.453H791.882L790.786 213.876C790.966 204.144 789.202 194.473 785.596 185.43C781.991 176.386 776.617 168.151 769.788 161.205C762.959 154.259 754.813 148.742 745.825 144.975C736.836 141.209 727.187 139.269 717.439 139.269C707.692 139.269 698.042 141.209 689.054 144.975C680.065 148.742 671.919 154.259 665.09 161.205C658.261 168.151 652.887 176.386 649.282 185.43C645.677 194.473 643.912 204.144 644.092 213.876L644.266 234ZM284.641 231.512H641.775V213.901C642.135 194.053 650.284 175.14 664.467 161.231C678.65 147.322 697.735 139.529 717.613 139.529C737.492 139.529 756.577 147.322 770.76 161.231C784.943 175.14 793.091 194.053 793.452 213.901L794.398 230.965C837.243 229.199 883.775 225.219 886.565 221.189C897.052 205.792 896.828 183.056 896.703 168.006C896.703 166.34 896.703 164.773 896.703 163.28C896.703 161.414 894.212 160.793 891.273 159.972C889.131 159.474 887.262 159.027 887.262 157.335C887.262 154.35 882.156 108.903 877.797 90.9682C874.509 77.4859 805.159 68.9289 779.029 65.72C771.954 64.8493 766.848 64.2026 764.88 63.7797C761.517 63.0583 750.507 58.4316 735.287 52.0138C703.228 38.5315 649.547 15.9449 613.577 7.73612C598.93 4.37798 572.575 2.53723 539.395 2.53723C496.55 2.53723 453.531 5.64662 434.774 9.99976C384.431 21.9896 339.169 46.3921 306.139 64.2026C287.107 74.476 273.357 81.8888 265.635 83.0579C119.19 105.172 66.9535 122.012 48.9187 130.097C36.937 135.445 29.2399 159.076 27.4962 166.937L27.272 167.907H26.2756C25.0783 167.738 23.858 167.855 22.7148 168.249C21.5717 168.642 20.5382 169.301 19.6994 170.171C16.5358 174.101 17.034 184.573 21.2936 204.1C26.7987 229.299 43.04 231.463 57.8365 231.463H130.773V213.851C130.773 193.466 138.882 173.915 153.317 159.5C167.752 145.085 187.33 136.987 207.744 136.987C228.159 136.987 247.737 145.085 262.172 159.5C276.607 173.915 284.716 193.466 284.716 213.851L284.641 231.512Z" fill="#646464"/>
<path d="M633 214H632C632.014 195.623 637.943 177.733 648.921 162.948C659.899 148.163 675.349 137.26 693.008 131.835C710.668 126.41 729.611 126.748 747.063 132.799C764.516 138.85 779.562 150.297 790 165.463L789.175 166.01C778.861 151.023 763.994 139.711 746.749 133.728C729.504 127.745 710.785 127.406 693.333 132.761C675.88 138.116 660.608 148.883 649.753 163.487C638.897 178.091 633.026 195.766 633 213.925V214Z" fill="#646464"/>
<path d="M296 215H295.027C295.001 191.947 285.887 169.846 269.686 153.549C253.485 137.253 231.522 128.093 208.617 128.079C194.197 128.217 180.029 131.9 167.346 138.807C154.663 145.715 143.85 155.637 135.848 167.712L135 167.16C143.089 154.933 154.025 144.883 166.856 137.884C179.687 130.884 194.023 127.148 208.617 127C231.795 127.02 254.017 136.299 270.402 152.8C286.786 169.3 295.993 191.672 296 215Z" fill="#646464"/>
<path d="M624.002 213H623C623.326 182.154 637.625 153.97 661.241 137.627C673.162 129.393 679.998 102.179 679.998 63H681C681 102.502 674.013 129.99 661.817 138.423C638.452 154.617 624.327 182.478 624.002 213Z" fill="#646464"/>
<path d="M28 162V161.018C47.4358 161.018 94.993 154.118 94.993 148.103C94.993 134.721 80.3406 129.982 76.6146 129.982H48.9211V129H76.6146C80.7183 129 96 133.763 96 148.103C95.9748 155.739 44.6916 162 28 162Z" fill="#646464"/>
<path d="M295.548 215H294.577C294.577 116.035 305.977 95.957 310.283 91.9012C268.94 92.8025 93.4144 125.348 76.489 130.055C62.7247 134.612 58.0205 160.098 57.9707 160.398L57 160.223C57.1991 159.146 61.8536 133.835 76.1903 129.104C93.3895 124.322 273.843 91 312 91V92.0014C312 91.9263 295.548 97.5843 295.548 215Z" fill="#646464"/>
<path d="M64 215H23.3716V214.003H63.0368C62.6416 205.973 53.9726 195.997 44.7849 195.997H19V195H44.7849C54.6641 195 64 205.923 64 214.402V215Z" fill="#646464"/>
<path d="M311 92L321.057 78.6422C321.057 67.8913 326.959 63 332.418 63C342.771 63 350 69.679 350 75.6875C350 83.5583 340.016 91.9255 321.549 91.9255L311 92ZM332.418 63.9931C327.5 63.9931 322.041 68.6361 322.041 78.8904V79.0642L312.992 91.1062H321.549C339.377 91.1062 348.992 83.2354 348.992 75.8613C348.967 70.1507 342.18 63.9931 332.418 63.9931Z" fill="#646464"/>
<path d="M888.946 157.219L775.865 166.639L775.948 167.632L889.029 158.212L888.946 157.219Z" fill="#646464"/>
<path d="M776 169V166.826C830.299 166.826 897.158 163.022 897.827 163L898 165.174C897.331 165.196 830.374 169 776 169Z" fill="#646464"/>
<path d="M644 213H284V216H644V213Z" fill="#646464"/>
<path d="M149 166H26V168H149V166Z" fill="#646464"/>
<path d="M333 91V89.9937C335.343 89.9937 567.668 82.069 614.511 82.069C662.951 82.069 680.003 66.6221 680.003 63.3265C680.003 50.7476 617.677 18.0425 585.966 13.8915C551.064 9.33789 491.007 10.8222 463.26 13.8915C407.367 20.0803 346.088 67.4775 345.515 67.9555L344.892 67.1756C345.515 66.6976 406.968 19.1243 463.16 12.8852C490.932 9.81591 551.139 8.3316 586.091 12.8852C615.509 16.7343 681 49.5652 681 63.2007C681 67.2259 663.549 82.9496 614.511 82.9496C567.668 83.0753 335.343 90.9245 333 91Z" fill="#646464"/>
<path d="M850.307 133.9C849.489 133.9 848.799 133.352 848.262 132.229C845.219 125.844 847.571 101.501 856.495 91.1995L856.648 91H879.659V91.9977H857.006C847.981 102.698 846.472 126.318 849.08 131.905C849.336 132.404 849.719 133.002 850.205 133.002H886V134L850.307 133.9Z" fill="#646464"/>
<path d="M883 109H851V110H883V109Z" fill="#646464"/>
<path d="M884 119H849V120H884V119Z" fill="#646464"/>
<path d="M76.1245 130L76 129.007C341.93 93.2493 818.438 91.7852 854.842 91.7852C844.085 86.8222 788.534 63.9926 679.97 63.9926V63C801.357 63 856.759 91.537 857.232 91.8348L859 92.7529H857.133C852.153 92.8274 351.317 93.0011 76.1245 130Z" fill="#646464"/>
<path d="M491 86L506.184 11L526 11.275V11.8L520.699 85.475L491 86ZM507.001 12.025L492.139 84.975L519.56 84.525L524.761 12.3L507.001 12.025Z" fill="#646464"/>
<path d="M499.937 214H499C499 160.27 514.923 12.4185 515.087 11H516C515.86 12.5927 499.937 160.419 499.937 214Z" fill="#646464"/>
<path d="M619.668 23.636L616.85 81.498L617.845 81.5466L620.664 23.6846L619.668 23.636Z" fill="#646464"/>
<path d="M666.07 111H636.93C635.623 111 634.369 110.503 633.444 109.618C632.519 108.734 632 107.534 632 106.283V105.717C632 104.466 632.519 103.266 633.444 102.382C634.369 101.497 635.623 101 636.93 101H666.07C667.377 101 668.631 101.497 669.556 102.382C670.481 103.266 671 104.466 671 105.717V106.283C671 107.534 670.481 108.734 669.556 109.618C668.631 110.503 667.377 111 666.07 111ZM636.93 102.061C636.42 102.061 635.915 102.158 635.444 102.345C634.972 102.533 634.545 102.808 634.185 103.154C633.825 103.5 633.541 103.912 633.348 104.363C633.155 104.815 633.057 105.299 633.06 105.788V106.354C633.06 107.336 633.468 108.278 634.194 108.972C634.92 109.667 635.904 110.057 636.93 110.057H666.07C667.096 110.057 668.081 109.667 668.806 108.972C669.532 108.278 669.94 107.336 669.94 106.354V105.788C669.943 105.299 669.845 104.815 669.652 104.363C669.459 103.912 669.175 103.5 668.815 103.154C668.455 102.808 668.028 102.533 667.556 102.345C667.085 102.158 666.58 102.061 666.07 102.061H636.93Z" fill="#646464"/>
<path d="M658.066 115H641.061C639.719 115 638.431 114.474 637.482 113.538C636.533 112.602 636 111.333 636 110.009V101H637.012V110.009C637.019 111.05 637.443 112.047 638.192 112.781C638.941 113.515 639.954 113.927 641.01 113.927H658.015C659.067 113.92 660.073 113.506 660.817 112.772C661.561 112.039 661.981 111.046 661.988 110.009V101H663V110.009C663 111.311 662.485 112.562 661.563 113.495C660.641 114.427 659.386 114.967 658.066 115Z" fill="#646464"/>
<path d="M496.07 111H466.93C465.623 111 464.369 110.503 463.444 109.618C462.519 108.734 462 107.534 462 106.283V105.717C462 104.466 462.519 103.266 463.444 102.382C464.369 101.497 465.623 101 466.93 101H496.07C497.377 101 498.631 101.497 499.556 102.382C500.481 103.266 501 104.466 501 105.717V106.283C501 107.534 500.481 108.734 499.556 109.618C498.631 110.503 497.377 111 496.07 111ZM466.93 102.156C465.902 102.162 464.917 102.557 464.192 103.255C463.467 103.954 463.06 104.898 463.06 105.882V106.448C463.06 107.43 463.468 108.372 464.194 109.066C464.92 109.761 465.904 110.151 466.93 110.151H496.07C496.58 110.154 497.086 110.061 497.558 109.876C498.031 109.691 498.46 109.419 498.822 109.075C499.184 108.731 499.472 108.321 499.668 107.871C499.864 107.42 499.965 106.936 499.965 106.448V105.882C499.965 104.894 499.554 103.946 498.824 103.247C498.093 102.548 497.103 102.156 496.07 102.156H466.93Z" fill="#646464"/>
<path d="M487.248 115H470.873C469.581 115 468.341 114.474 467.427 113.538C466.513 112.602 466 111.333 466 110.009V101H466.999V110.009C466.999 111.048 467.402 112.045 468.12 112.779C468.837 113.514 469.81 113.927 470.825 113.927H487.2C488.214 113.927 489.187 113.514 489.905 112.779C490.622 112.045 491.025 111.048 491.025 110.009V101H492V110.009C492 111.311 491.504 112.562 490.616 113.495C489.728 114.427 488.52 114.967 487.248 115Z" fill="#646464"/>
<path d="M309.623 92C290.165 92 274.149 80.0038 274 79.7589L274.594 79C274.767 79.1224 291.923 91.9265 312 90.8738V91.8531L309.623 92Z" fill="#646464"/>
<path d="M291.595 89L291 88.1971C291.868 87.5198 379.508 20.6839 466.802 4L467 5.00353C379.905 21.5369 292.463 88.2473 291.595 89Z" fill="#646464"/>
</svg>
