<svg width="19" height="19" viewBox="0 0 19 19" fill="none" xmlns="http://www.w3.org/2000/svg">
    <path d="M9.89831 15.6345L10.1324 16.0763L10.1324 16.0763L9.89831 15.6345ZM9.10153 15.6345L8.86741 16.0763L9.10153 15.6345ZM14.5416 8.70835C14.5416 10.4723 13.6632 11.9174 12.5875 13.0267C11.5116 14.136 10.2766 14.8682 9.66419 15.1927L10.1324 16.0763C10.7905 15.7275 12.1271 14.9377 13.3053 13.7229C14.4836 12.5079 15.5416 10.8265 15.5416 8.70835H14.5416ZM9.49992 3.66669C12.2844 3.66669 14.5416 5.92392 14.5416 8.70835H15.5416C15.5416 5.37163 12.8366 2.66669 9.49992 2.66669V3.66669ZM4.45825 8.70835C4.45825 5.92392 6.71548 3.66669 9.49992 3.66669V2.66669C6.1632 2.66669 3.45825 5.37163 3.45825 8.70835H4.45825ZM9.33565 15.1927C8.72325 14.8682 7.48822 14.136 6.41239 13.0267C5.33663 11.9174 4.45825 10.4723 4.45825 8.70835H3.45825C3.45825 10.8265 4.51626 12.5079 5.69452 13.7229C6.87271 14.9377 8.20931 15.7275 8.86741 16.0763L9.33565 15.1927ZM9.66419 15.1927C9.55892 15.2485 9.44091 15.2485 9.33565 15.1927L8.86741 16.0763C9.26554 16.2873 9.7343 16.2873 10.1324 16.0763L9.66419 15.1927ZM11.3749 8.70835C11.3749 9.74389 10.5355 10.5834 9.49992 10.5834V11.5834C11.0877 11.5834 12.3749 10.2962 12.3749 8.70835H11.3749ZM9.49992 6.83335C10.5355 6.83335 11.3749 7.67282 11.3749 8.70835H12.3749C12.3749 7.12053 11.0877 5.83335 9.49992 5.83335V6.83335ZM7.62492 8.70835C7.62492 7.67282 8.46438 6.83335 9.49992 6.83335V5.83335C7.9121 5.83335 6.62492 7.12053 6.62492 8.70835H7.62492ZM9.49992 10.5834C8.46438 10.5834 7.62492 9.74389 7.62492 8.70835H6.62492C6.62492 10.2962 7.9121 11.5834 9.49992 11.5834V10.5834Z" fill="white"/>
</svg>
