<svg width="74" height="74" viewBox="0 0 74 74" fill="none" xmlns="http://www.w3.org/2000/svg">
<path d="M36.8649 73.7596C29.5737 73.7596 22.4463 71.5966 16.3839 67.5442C10.3215 63.4918 5.59641 57.732 2.80619 50.9931C0.015975 44.2542 -0.714076 36.8389 0.708365 29.6849C2.13081 22.5309 5.64185 15.9596 10.7975 10.8019C15.9531 5.64413 22.5218 2.13167 29.6729 0.708652C36.824 -0.714363 44.2363 0.0159775 50.9725 2.80732C57.7087 5.59867 63.4662 10.3256 67.517 16.3905C71.5677 22.4553 73.7298 29.5857 73.7298 36.8798C73.7298 46.6609 69.8459 56.0415 62.9323 62.9578C56.0188 69.8741 46.6421 73.7596 36.8649 73.7596ZM36.8649 1.36593C29.8438 1.36593 22.9803 3.44879 17.1424 7.3511C11.3046 11.2534 6.7545 16.7999 4.06762 23.2892C1.38075 29.7786 0.677739 36.9192 2.0475 43.8082C3.41725 50.6973 6.79826 57.0252 11.763 61.9919C16.7277 66.9586 23.0531 70.341 29.9393 71.7113C36.8255 73.0816 43.9633 72.3783 50.45 69.6904C56.9367 67.0024 62.481 62.4505 66.3817 56.6103C70.2824 50.77 72.3645 43.9038 72.3645 36.8798C72.3645 27.4609 68.6243 18.4279 61.9669 11.7677C55.3094 5.10757 46.28 1.36593 36.8649 1.36593Z" fill="#5E5E5E"/>
<path d="M36.8655 63.0236C31.6894 63.0128 26.6327 61.4668 22.3347 58.5812C18.0367 55.6957 14.6904 51.6 12.7189 46.812C10.7475 42.0241 10.2393 36.7589 11.2587 31.682C12.2782 26.6052 14.7794 21.9447 18.4461 18.2899C22.1129 14.635 26.7806 12.1498 31.8591 11.1485C36.9375 10.1472 42.1987 10.6748 46.9775 12.6645C51.7563 14.6542 55.8381 18.0168 58.7068 22.327C61.5755 26.6373 63.1023 31.7016 63.0942 36.8799C63.0762 43.8246 60.3039 50.4784 55.3863 55.3801C50.4686 60.2818 43.8075 63.0308 36.8655 63.0236ZM36.8655 11.2006C31.7986 11.2006 26.8453 12.7033 22.6317 15.5186C18.4181 18.334 15.1333 22.3357 13.1924 27.0181C11.2514 31.7005 10.7415 36.8534 11.7271 41.8256C12.7126 46.7979 15.1494 51.3662 18.7294 54.9534C22.3095 58.5406 26.8721 60.9857 31.8407 61.9796C36.8094 62.9734 41.961 62.4716 46.6446 60.5373C51.3282 58.6031 55.3335 55.3234 58.1545 51.1126C60.9754 46.9018 62.4854 41.9489 62.4935 36.8799C62.4971 30.0753 59.7995 23.5478 54.9937 18.7324C50.1879 13.917 43.6674 11.2079 36.8655 11.2006ZM39.2413 57.9287V46.7555H39.4461C40.3439 46.512 41.2066 46.1539 42.013 45.6901L42.1905 45.5808L50.096 53.4895L49.8502 53.6807C46.8606 55.9956 43.3058 57.4672 39.5553 57.9423L39.2413 57.9287ZM39.7874 47.1652V57.3687C43.2273 56.8788 46.4872 55.5254 49.2631 53.4348L42.1085 46.2637C41.3737 46.6561 40.5944 46.9588 39.7874 47.1652ZM34.4898 57.9287H34.1894C30.4347 57.4539 26.8753 55.9825 23.8809 53.667L23.6351 53.4758L31.5406 45.5671L31.7181 45.6764C32.5245 46.1402 33.3872 46.4983 34.285 46.7418H34.4898V57.9287ZM24.468 53.3802C27.241 55.4857 30.5001 56.8575 33.9437 57.3687V47.1652C33.1377 46.9439 32.3625 46.6227 31.6362 46.2091L24.468 53.3802ZM20.2763 50.0747L20.0852 49.8288C17.7741 46.8312 16.3037 43.2714 15.8252 39.5161V39.2156H26.9939V39.4205C27.2373 40.3186 27.5953 41.1817 28.0589 41.9884L28.1681 42.166L20.2763 50.0747ZM16.4123 39.762C16.8939 43.2031 18.2424 46.4652 20.3309 49.2414L27.4991 42.084C27.0937 41.3487 26.7731 40.5697 26.5434 39.762H16.4123ZM53.4548 50.0747L45.5493 42.166L45.6585 41.9884C46.123 41.1837 46.4766 40.3199 46.7098 39.4205V39.2156H57.8785V39.5161C57.4125 43.2746 55.9407 46.8376 53.6186 49.8288L53.4548 50.0747ZM46.232 42.084L53.4001 49.2414C55.4873 46.463 56.8398 43.2025 57.3324 39.762H47.2014C46.967 40.5702 46.6418 41.3492 46.232 42.084ZM57.9468 34.4622H46.7781V34.2573C46.5466 33.3552 46.188 32.4905 45.7131 31.6894L45.6039 31.5118L53.5094 23.6032L53.7005 23.849C56.0002 26.8426 57.4527 30.3999 57.9058 34.148L57.9468 34.4622ZM47.2014 33.9158H57.3324C56.8427 30.4746 55.4899 27.2134 53.4001 24.4364L46.232 31.5938C46.6418 32.3287 46.967 33.1077 47.2014 33.9158ZM26.953 34.4622H15.7843V34.148C16.2651 30.3976 17.7354 26.8428 20.0442 23.849L20.2354 23.6032L28.1408 31.5118L28.0316 31.6894C27.568 32.4961 27.21 33.3592 26.9666 34.2573L26.953 34.4622ZM16.4123 33.9158H26.5434C26.7731 33.1081 27.0937 32.3291 27.4991 31.5938L20.3309 24.4364C18.2424 27.2127 16.8939 30.4747 16.4123 33.9158ZM31.5406 28.1517L23.6351 20.243L23.8809 20.0518C26.8723 17.7311 30.4331 16.259 34.1894 15.7901H34.4898V26.9633H34.285C33.3852 27.2009 32.5217 27.5593 31.7181 28.0287L31.5406 28.1517ZM24.468 20.2976L31.6908 27.4687C32.4195 27.0564 33.1939 26.7309 33.9983 26.4989V16.3911C30.5433 16.8692 27.265 18.213 24.468 20.2976ZM42.2178 28.1517L42.0403 28.0424C41.2366 27.573 40.3732 27.2146 39.4734 26.977H39.2686V15.7491H39.5826C43.3347 16.2184 46.891 17.6906 49.8775 20.0108L50.1233 20.202L42.2178 28.1517ZM39.7874 26.4989C40.5953 26.7334 41.374 27.0587 42.1085 27.4687L49.2631 20.2976C46.4844 18.2168 43.2248 16.8729 39.7874 16.3911V26.4989Z" fill="#5E5E5E"/>
<path d="M36.8642 58.1338C32.653 58.1311 28.5373 56.8788 25.0378 54.5355C21.5382 52.1921 18.8121 48.863 17.2043 44.9693C15.5965 41.0755 15.1793 36.7922 16.0055 32.6613C16.8317 28.5303 18.8641 24.7373 21.8457 21.7622C24.8272 18.7871 28.6239 16.7636 32.7553 15.9476C36.8867 15.1317 41.1672 15.5601 45.0552 17.1785C48.9432 18.7969 52.264 21.5327 54.5974 25.0397C56.9308 28.5467 58.172 32.6672 58.1639 36.8801C58.1495 42.5219 55.899 47.9278 51.9061 51.912C47.9132 55.8963 42.5038 58.1338 36.8642 58.1338ZM36.8642 16.0908C32.7651 16.0962 28.7596 17.3166 25.3534 19.598C21.9472 21.8793 19.2932 25.1192 17.7264 28.9085C16.1596 32.6979 15.7504 36.8667 16.5505 40.8886C17.3505 44.9104 19.3239 48.6049 22.2214 51.5055C25.1189 54.4061 28.8106 56.3827 32.8303 57.1857C36.85 57.9887 41.0174 57.5821 44.8063 56.0171C48.5951 54.4522 51.8355 51.7992 54.1181 48.3932C56.4008 44.9871 57.6233 40.9808 57.6314 36.8801C57.635 34.1501 57.1004 31.4463 56.0582 28.9233C55.016 26.4003 53.4866 24.1077 51.5577 22.1767C49.6287 20.2457 47.338 18.7142 44.8167 17.6699C42.2954 16.6256 39.593 16.089 36.8642 16.0908Z" fill="#5E5E5E"/>
<path d="M36.8651 45.0756C35.2448 45.0756 33.6609 44.5949 32.3137 43.6944C30.9665 42.7939 29.9165 41.5139 29.2964 40.0164C28.6764 38.5188 28.5142 36.871 28.8303 35.2812C29.1464 33.6914 29.9266 32.2311 31.0723 31.085C32.218 29.9388 33.6777 29.1583 35.2668 28.842C36.856 28.5258 38.5031 28.6881 40.0001 29.3084C41.497 29.9287 42.7765 30.9792 43.6766 32.3269C44.5768 33.6746 45.0573 35.2592 45.0573 36.8801C45.0573 39.0537 44.1942 41.1382 42.6578 42.6752C41.1215 44.2121 39.0378 45.0756 36.8651 45.0756ZM36.8651 29.2856C35.3571 29.2856 33.883 29.7333 32.6295 30.572C31.376 31.4107 30.3995 32.6027 29.8237 33.997C29.2478 35.3913 29.0986 36.9252 29.3948 38.4044C29.691 39.8836 30.4193 41.2417 31.4875 42.3065C32.5558 43.3713 33.9158 44.0951 35.3955 44.3861C36.8752 44.6771 38.4079 44.5222 39.7996 43.9412C41.1913 43.3601 42.3792 42.3789 43.2131 41.122C44.047 39.865 44.4892 38.3887 44.4838 36.8801C44.4874 35.8762 44.2931 34.8815 43.912 33.9529C43.5309 33.0242 42.9705 32.1799 42.2628 31.4681C41.5552 30.7564 40.7142 30.1913 39.788 29.805C38.8618 29.4188 37.8685 29.2191 36.8651 29.2173V29.2856Z" fill="#5E5E5E"/>
<path d="M36.8644 71.0282C30.0909 71.0254 23.4705 69.0124 17.8412 65.2437C12.2119 61.4751 7.82679 56.1204 5.24095 49.8574C2.65511 43.5944 1.9848 36.7047 3.31487 30.0604C4.64494 23.4161 7.91559 17.3159 12.7128 12.5321C17.51 7.74824 23.6181 4.49578 30.264 3.1864C36.9098 1.87703 43.7946 2.56963 50.0467 5.17651C56.2989 7.78339 61.6374 12.1874 65.3865 17.831C69.1356 23.4745 71.1267 30.104 71.1078 36.8802C71.0717 45.9446 67.4489 54.6259 61.0317 61.0252C54.6145 67.4245 45.9252 71.021 36.8644 71.0282ZM36.8644 3.90695C30.3691 3.90968 24.0203 5.83782 18.6196 9.44789C13.219 13.058 9.00878 18.1881 6.52066 24.1903C4.03254 30.1926 3.37811 36.7979 4.64 43.172C5.9019 49.5461 9.02353 55.4032 13.6107 60.0037C18.1978 64.6041 24.0448 67.7416 30.4132 69.0198C36.7816 70.2981 43.3858 69.6598 49.3918 67.1857C55.3978 64.7115 60.5363 60.5123 64.1584 55.1185C67.7804 49.7247 69.7236 43.3781 69.7425 36.8802C69.7425 28.1544 66.2794 19.7855 60.1144 13.6129C53.9493 7.44023 45.5867 3.96883 36.8644 3.96159V3.90695Z" fill="#5E5E5E"/>
</svg>
